<svg width="139" height="33" viewBox="0 0 139 33" fill="none" xmlns="http://www.w3.org/2000/svg">
<path d="M49.418 13.6953C49.7109 13.7865 49.9779 13.9167 50.2188 14.0859C50.4596 14.2552 50.6647 14.4733 50.834 14.7402C51.0033 15.0007 51.1335 15.3099 51.2246 15.668C51.3158 16.026 51.3613 16.4362 51.3613 16.8984V17.6016C51.3613 19.8672 50.2285 21 47.9629 21H40.2969V6.99609H47.5625C49.8281 6.99609 50.9609 8.13216 50.9609 10.4043V10.6582C50.9609 11.446 50.834 12.0905 50.5801 12.5918C50.3327 13.0866 49.9453 13.4544 49.418 13.6953ZM42.2598 14.8965V19.0371H47.9043C48.4316 19.0371 48.8125 18.9134 49.0469 18.666C49.2812 18.4186 49.3984 18.0312 49.3984 17.5039V16.4199C49.3984 15.8861 49.2812 15.4987 49.0469 15.2578C48.8125 15.0169 48.4316 14.8965 47.9043 14.8965H42.2598ZM42.2598 8.95898V12.9434H47.6406C48.1224 12.9238 48.4674 12.7936 48.6758 12.5527C48.8906 12.3053 48.998 11.9277 48.998 11.4199V10.502C48.998 9.9681 48.8809 9.57747 48.6465 9.33008C48.4121 9.08268 48.0312 8.95898 47.5039 8.95898H42.2598ZM56.4781 12.5234V21H54.5641V10.5996H56.4781V12.4355C56.4911 12.1816 56.5497 11.944 56.6539 11.7227C56.7581 11.4948 56.8948 11.2995 57.0641 11.1367C57.2398 10.9674 57.4417 10.8372 57.6695 10.7461C57.8974 10.6484 58.1415 10.5996 58.402 10.5996H60.443C60.7099 10.5996 60.9573 10.6517 61.1852 10.7559C61.4195 10.8535 61.6246 10.9902 61.8004 11.166C61.9762 11.3353 62.1129 11.5371 62.2105 11.7715C62.3147 12.0059 62.3668 12.2565 62.3668 12.5234V14.2812H60.443V12.5234H56.4781ZM65.1594 16.459C65.1594 16.1921 65.2082 15.9447 65.3059 15.7168C65.41 15.4824 65.5467 15.2773 65.716 15.1016C65.8918 14.9258 66.0969 14.7891 66.3312 14.6914C66.5656 14.5872 66.813 14.5352 67.0734 14.5352H72.0344V12.5234H65.7551V10.5996H72.0344C72.3013 10.5996 72.552 10.6517 72.7863 10.7559C73.0207 10.8535 73.2225 10.9902 73.3918 11.166C73.5676 11.3353 73.7043 11.5371 73.802 11.7715C73.9061 12.0059 73.9582 12.2565 73.9582 12.5234V21H72.0344V19.2422C72.0148 19.4831 71.9497 19.7109 71.8391 19.9258C71.7284 20.1406 71.5852 20.3294 71.4094 20.4922C71.2401 20.6484 71.0448 20.7721 70.8234 20.8633C70.6021 20.9544 70.3677 21 70.1203 21H67.0734C66.813 21 66.5656 20.9512 66.3312 20.8535C66.0969 20.7493 65.8918 20.6126 65.716 20.4434C65.5467 20.2676 65.41 20.0625 65.3059 19.8281C65.2082 19.5938 65.1594 19.3431 65.1594 19.0762V16.459ZM67.0734 19.0762H72.0344V16.459H67.0734V19.0762ZM80.5301 21L76.3699 10.5996H78.3719L81.5262 18.6953L84.6902 10.5996H86.6922L82.532 21H80.5301ZM91.1254 10.5996V21H89.2016V10.5996H91.1254ZM89.1039 6.5957H91.223V8.59766H89.1039V6.5957ZM94.8359 10.5996H96.75V19.0762H102.111V10.5996H104.035V21H102.111V19.2422C102.092 19.4831 102.027 19.7109 101.916 19.9258C101.805 20.1406 101.662 20.3294 101.486 20.4922C101.317 20.6484 101.122 20.7721 100.9 20.8633C100.679 20.9544 100.445 21 100.197 21H96.75C96.4896 21 96.2422 20.9512 96.0078 20.8535C95.7734 20.7493 95.5684 20.6126 95.3926 20.4434C95.2233 20.2676 95.0866 20.0625 94.9824 19.8281C94.8848 19.5938 94.8359 19.3431 94.8359 19.0762V10.5996ZM113.918 19.0762V16.6641H109.357C109.09 16.6641 108.839 16.6152 108.605 16.5176C108.371 16.4134 108.166 16.2767 107.99 16.1074C107.821 15.9316 107.684 15.7266 107.58 15.4922C107.482 15.2578 107.433 15.0072 107.433 14.7402V12.5234C107.433 12.2565 107.482 12.0059 107.58 11.7715C107.684 11.5371 107.821 11.3353 107.99 11.166C108.166 10.9902 108.371 10.8535 108.605 10.7559C108.839 10.6517 109.09 10.5996 109.357 10.5996H115.441V12.5234H109.357V14.7402H113.918C114.185 14.7402 114.432 14.7923 114.66 14.8965C114.894 14.9941 115.099 15.1309 115.275 15.3066C115.451 15.4759 115.588 15.6777 115.685 15.9121C115.789 16.1465 115.841 16.3971 115.841 16.6641V19.0762C115.841 19.3431 115.789 19.5938 115.685 19.8281C115.588 20.0625 115.451 20.2676 115.275 20.4434C115.099 20.6126 114.894 20.7493 114.66 20.8535C114.432 20.9512 114.185 21 113.918 21H107.433V19.0762H113.918Z" fill="white"/>
<path d="M125.646 6.99609L131.046 21H129.044L127.804 17.7773H121.486L120.245 21H118.243L123.644 6.99609H125.646ZM122.247 15.7754H127.032L124.65 9.60352L122.247 15.7754ZM135.85 6.99609V21H133.848V6.99609H135.85Z" fill="#00F0FF"/>
<path d="M15.6673 2.30829C16.2596 1.28238 17.7404 1.28238 18.3327 2.30829L29.9567 22.4417C30.549 23.4676 29.8087 24.75 28.624 24.75H5.37596C4.19135 24.75 3.45097 23.4676 4.04327 22.4417L15.6673 2.30829Z" fill="white"/>
<path d="M14.0517 13.5076L10.8005 13.5076L8.3212 11.0284C7.92056 10.6277 7.27099 10.6277 6.87035 11.0284L3.57764 14.3211C3.17699 14.7217 3.177 15.3713 3.57764 15.7719L6.87035 19.0646C7.27099 19.4653 7.92055 19.4653 8.3212 19.0646L10.9715 16.4144H14.0517L16.0595 18.4222L16.0595 21.075L13.3238 23.8107C12.9231 24.2113 12.9231 24.8609 13.3237 25.2616L16.702 28.6398C17.1026 29.0404 17.7522 29.0404 18.1528 28.6398L21.531 25.2616C21.9316 24.8609 21.9316 24.2114 21.531 23.8107L18.7953 21.075V18.4222L21.4455 15.7719C21.8462 15.3713 21.8462 14.7217 21.4455 14.3211L18.0673 10.9429C17.6667 10.5422 17.0171 10.5422 16.6165 10.9429L14.0517 13.5076Z" fill="#00F0FF" stroke="#0E151F" stroke-width="1.02591"/>
<rect x="5.45361" y="5.64258" width="3.76166" height="3.76166" rx="0.512953" transform="rotate(45 5.45361 5.64258)" fill="#00F0FF"/>
</svg>
