<svg width="150" height="36" viewBox="0 0 150 36" fill="none" xmlns="http://www.w3.org/2000/svg">
<g clip-path="url(#clip0_284_142)">
<path d="M46.0366 24.7065H56.5311V21.5455H49.7666V9.63916H46.0366V24.7065Z" fill="white"/>
<path d="M62.7476 22.5992C61.2514 22.5992 60.4717 21.2927 60.4717 19.3329C60.4717 17.3731 61.2514 16.0455 62.7476 16.0455C64.2438 16.0455 65.0446 17.3731 65.0446 19.3329C65.0446 21.2927 64.2438 22.5992 62.7476 22.5992ZM62.7687 25.0437C66.2457 25.0437 68.5217 22.5782 68.5217 19.3329C68.5217 16.0876 66.2457 13.6221 62.7687 13.6221C59.3127 13.6221 56.9946 16.0876 56.9946 19.3329C56.9946 22.5782 59.3127 25.0437 62.7687 25.0437Z" fill="white"/>
<path d="M74.5406 28.4366C76.1422 28.4366 77.5541 28.0783 78.5024 27.2354C79.3664 26.4557 79.9354 25.2756 79.9354 23.653V13.9172H76.6479V15.0762H76.6058C75.9736 14.1701 75.0042 13.6011 73.5713 13.6011C70.895 13.6011 69.0405 15.8348 69.0405 18.9958C69.0405 22.3043 71.2954 24.1166 73.7188 24.1166C75.0253 24.1166 75.8472 23.5898 76.4794 22.8733H76.5636V23.948C76.5636 25.2545 75.9525 26.0132 74.4985 26.0132C73.3605 26.0132 72.7916 25.5285 72.6019 24.9595H69.2723C69.6095 27.2143 71.5693 28.4366 74.5406 28.4366ZM74.5195 21.5667C73.2341 21.5667 72.3912 20.5131 72.3912 18.8904C72.3912 17.2467 73.2341 16.1931 74.5195 16.1931C75.9525 16.1931 76.7112 17.4153 76.7112 18.8694C76.7112 20.3866 76.0157 21.5667 74.5195 21.5667Z" fill="white"/>
<path d="M86.6954 22.5992C85.1992 22.5992 84.4195 21.2927 84.4195 19.3329C84.4195 17.3731 85.1992 16.0455 86.6954 16.0455C88.1916 16.0455 88.9923 17.3731 88.9923 19.3329C88.9923 21.2927 88.1916 22.5992 86.6954 22.5992ZM86.7164 25.0437C90.1935 25.0437 92.4694 22.5782 92.4694 19.3329C92.4694 16.0876 90.1935 13.6221 86.7164 13.6221C83.2604 13.6221 80.9424 16.0876 80.9424 19.3329C80.9424 22.5782 83.2604 25.0437 86.7164 25.0437Z" fill="white"/>
<path d="M93.4717 24.7065H96.9066V13.917H93.4717V24.7065ZM93.4717 12.4208H96.9066V9.63916H93.4717V12.4208Z" fill="white"/>
<path d="M98.3975 28.268H101.832V23.5898H101.875C102.549 24.4959 103.539 25.0438 104.93 25.0438C107.754 25.0438 109.629 22.81 109.629 19.3119C109.629 16.0666 107.88 13.6011 105.014 13.6011C103.539 13.6011 102.486 14.2543 101.748 15.2237H101.685V13.9172H98.3975V28.268ZM104.045 22.3886C102.57 22.3886 101.727 21.1874 101.727 19.4383C101.727 17.6893 102.486 16.3617 103.982 16.3617C105.457 16.3617 106.152 17.5839 106.152 19.4383C106.152 21.2717 105.352 22.3886 104.045 22.3886Z" fill="white"/>
<path d="M115.222 25.0438C118.046 25.0438 120.132 23.8216 120.132 21.4614C120.132 18.7008 117.898 18.2161 116.002 17.9C114.632 17.6471 113.41 17.5418 113.41 16.7831C113.41 16.1088 114.063 15.7927 114.906 15.7927C115.854 15.7927 116.507 16.0877 116.634 17.0571H119.795C119.626 14.9287 117.982 13.6011 114.927 13.6011C112.377 13.6011 110.27 14.7812 110.27 17.0571C110.27 19.5859 112.272 20.0916 114.147 20.4077C115.58 20.6606 116.887 20.766 116.887 21.7353C116.887 22.4307 116.233 22.8101 115.201 22.8101C114.063 22.8101 113.346 22.2832 113.22 21.2085H109.975C110.08 23.5898 112.061 25.0438 115.222 25.0438Z" fill="white"/>
<path d="M124.798 25.0226C126.294 25.0226 127.243 24.4325 128.022 23.3788H128.085V24.7065H131.373V13.917H127.938V19.9439C127.938 21.2294 127.221 22.1145 126.041 22.1145C124.946 22.1145 124.419 21.4612 124.419 20.2811V13.917H121.005V20.9976C121.005 23.3999 122.311 25.0226 124.798 25.0226Z" fill="white"/>
<path d="M132.866 24.7066H136.301V18.6586C136.301 17.3732 136.933 16.467 138.008 16.467C139.041 16.467 139.525 17.1414 139.525 18.3004V24.7066H142.96V18.6586C142.96 17.3732 143.571 16.467 144.667 16.467C145.7 16.467 146.184 17.1414 146.184 18.3004V24.7066H149.619V17.6893C149.619 15.2659 148.397 13.6011 145.953 13.6011C144.562 13.6011 143.403 14.1911 142.56 15.4977H142.518C141.97 14.3386 140.895 13.6011 139.483 13.6011C137.924 13.6011 136.891 14.3386 136.217 15.4555H136.154V13.9172H132.866V24.7066Z" fill="white"/>
<path fill-rule="evenodd" clip-rule="evenodd" d="M18.6616 35.243C28.3602 35.243 36.2225 27.3807 36.2225 17.682C36.2225 7.98341 28.3602 0.121094 18.6616 0.121094C8.96289 0.121094 1.10059 7.98341 1.10059 17.682C1.10059 27.3807 8.96289 35.243 18.6616 35.243ZM24.14 8.30173C24.4066 7.3545 23.4874 6.79438 22.6479 7.39248L10.9287 15.7412C10.0182 16.3898 10.1614 17.682 11.1438 17.682H14.2298V17.6582H20.2443L15.3436 19.3873L13.1832 27.0624C12.9165 28.0097 13.8356 28.5698 14.6752 27.9716L26.3945 19.623C27.3049 18.9744 27.1616 17.682 26.1793 17.682H21.4995L24.14 8.30173Z" fill="white"/>
</g>
<defs>
<clipPath id="clip0_284_142">
<rect width="149.268" height="36" fill="white" transform="translate(0.5)"/>
</clipPath>
</defs>
</svg>
