<svg width="168" height="34" viewBox="0 0 168 34" fill="none" xmlns="http://www.w3.org/2000/svg">
<path d="M49.3 22.6914C49.3 23.4336 49.1352 24.0039 48.8055 24.4023C48.4844 24.8008 47.9477 25 47.1956 25C46.4856 25 45.9827 24.8008 45.6869 24.4023C45.3995 24.0039 45.2559 23.4336 45.2559 22.6914V10.3047C45.2559 9.5625 45.3995 8.99219 45.6869 8.59375C45.9827 8.19531 46.4856 7.99609 47.1956 7.99609C47.9477 7.99609 48.4844 8.19531 48.8055 8.59375C49.1352 8.99219 49.3 9.5625 49.3 10.3047V22.6914Z" fill="white"/>
<path d="M50.5278 19.0933C50.5278 18.2651 50.6715 17.4839 50.9589 16.7495C51.2547 16.0073 51.6941 15.3589 52.2773 14.8042C52.869 14.2495 53.6043 13.8081 54.4833 13.48C55.3707 13.1518 56.4102 12.9878 57.6019 12.9878C58.7429 12.9878 59.7529 13.1401 60.6319 13.4448C61.5109 13.7495 62.2504 14.1753 62.8504 14.7222C63.4505 15.2612 63.9069 15.9057 64.2196 16.6557C64.5323 17.3979 64.6887 18.2104 64.6887 19.0933C64.6887 19.9136 64.5407 20.6909 64.245 21.4253C63.9492 22.1518 63.5054 22.7925 62.9138 23.3472C62.3222 23.894 61.5827 24.3315 60.6953 24.6597C59.8078 24.98 58.7767 25.1401 57.6019 25.1401C56.4441 25.1401 55.4214 24.9878 54.5339 24.6831C53.6549 24.3706 52.9155 23.9448 52.3154 23.4057C51.7238 22.8589 51.2758 22.2183 50.9716 21.4839C50.6757 20.7417 50.5278 19.9448 50.5278 19.0933ZM54.7495 19.0933C54.7495 19.6089 54.8001 20.1011 54.9016 20.5698C55.003 21.0307 55.1636 21.437 55.3834 21.7886C55.6115 22.1401 55.9074 22.4214 56.2708 22.6323C56.6343 22.8354 57.0779 22.937 57.6019 22.937C58.0837 22.937 58.502 22.8433 58.857 22.6557C59.2205 22.4683 59.5162 22.2065 59.7445 21.8706C59.9811 21.5347 60.1586 21.1323 60.2769 20.6636C60.3952 20.187 60.4544 19.6636 60.4544 19.0933C60.4544 18.5776 60.3994 18.0893 60.2896 17.6284C60.1881 17.1597 60.0234 16.7495 59.7951 16.3979C59.567 16.0386 59.2712 15.7573 58.9077 15.5542C58.5528 15.3433 58.1174 15.2378 57.6019 15.2378C57.0864 15.2378 56.6469 15.3393 56.2834 15.5425C55.92 15.7456 55.6243 16.0229 55.396 16.3745C55.1679 16.7261 55.003 17.1362 54.9016 17.605C54.8001 18.0737 54.7495 18.5698 54.7495 19.0933Z" fill="white"/>
<path d="M75.0948 22.7378C74.8665 23.1284 74.5876 23.4604 74.258 23.7339C73.9369 24.0073 73.5777 24.2339 73.1805 24.4136C72.7917 24.5854 72.3734 24.7143 71.9254 24.8003C71.4858 24.8784 71.0338 24.9175 70.5689 24.9175C69.7913 24.9175 69.0814 24.7886 68.439 24.5307C67.7967 24.2729 67.2432 23.9018 66.7783 23.4175C66.3219 22.9253 65.967 22.3237 65.7134 21.6128C65.4598 20.9018 65.333 20.0893 65.333 19.1753C65.333 18.3159 65.4514 17.5112 65.6881 16.7612C65.9247 16.0112 66.2669 15.3589 66.7149 14.8042C67.1713 14.2495 67.7291 13.812 68.3884 13.4917C69.0475 13.1714 69.7998 13.0112 70.6449 13.0112C71.6084 13.0112 72.4621 13.1831 73.2058 13.5268C73.958 13.8706 74.6046 14.4331 75.1455 15.2143V14.9097C75.1455 14.3472 75.3103 13.9253 75.6399 13.644C75.978 13.355 76.4428 13.2104 77.0345 13.2104C77.3894 13.2104 77.6894 13.2651 77.9346 13.3745C78.1796 13.4761 78.374 13.6323 78.5177 13.8433C78.6614 14.0464 78.7628 14.3003 78.822 14.605C78.8896 14.9018 78.9234 15.2417 78.9234 15.6245V23.4761C78.9234 24.4292 78.7924 25.2807 78.5304 26.0307C78.2769 26.7807 77.8796 27.4136 77.3387 27.9292C76.7978 28.4448 76.1048 28.8354 75.2596 29.1011C74.4144 29.3745 73.4087 29.5112 72.2424 29.5112C71.4226 29.5112 70.6957 29.4761 70.0617 29.4057C69.4363 29.3433 68.8954 29.2456 68.439 29.1128C67.9827 28.9643 67.6362 28.8003 67.3995 28.6206C67.1713 28.4409 67.0572 28.2065 67.0572 27.9175C67.0572 27.7534 67.0825 27.5972 67.1333 27.4487C67.184 27.3003 67.2601 27.1675 67.3614 27.0503C67.4713 26.9409 67.6108 26.8511 67.7799 26.7807C67.9573 26.7183 68.1728 26.687 68.4264 26.687C68.6968 26.687 68.9673 26.7026 69.2377 26.7339C69.5166 26.7651 69.8041 26.7964 70.0998 26.8276C70.404 26.8667 70.721 26.9018 71.0506 26.9331C71.3887 26.9643 71.7521 26.98 72.1409 26.98C72.6057 26.98 73.0199 26.937 73.3834 26.8511C73.7467 26.7651 74.0552 26.6128 74.3087 26.394C74.5623 26.1753 74.7567 25.8823 74.892 25.5151C75.0272 25.1557 75.0948 24.6948 75.0948 24.1323V22.7378ZM75.0948 19.0933C75.0948 18.5229 75.0483 18.0034 74.9554 17.5347C74.8709 17.0659 74.7229 16.6675 74.5116 16.3393C74.3003 16.0034 74.0172 15.7456 73.6622 15.5659C73.3072 15.3784 72.8635 15.2847 72.3311 15.2847C71.807 15.2847 71.3718 15.3823 71.0253 15.5776C70.6872 15.7729 70.4168 16.0425 70.214 16.3862C70.0111 16.73 69.8674 17.1323 69.7829 17.5933C69.7068 18.0542 69.6688 18.5464 69.6688 19.0698C69.6688 20.2651 69.897 21.1636 70.3534 21.7651C70.8097 22.3667 71.4732 22.6675 72.3437 22.6675C72.7494 22.6597 73.1171 22.5893 73.4466 22.4565C73.7847 22.3159 74.0764 22.1011 74.3214 21.812C74.5665 21.5229 74.7567 21.1557 74.892 20.7104C75.0272 20.2651 75.0948 19.7261 75.0948 19.0933Z" fill="white"/>
<path d="M80.0874 19.0933C80.0874 18.2651 80.2311 17.4839 80.5184 16.7495C80.8143 16.0073 81.2537 15.3589 81.8369 14.8042C82.4286 14.2495 83.1638 13.8081 84.0427 13.48C84.9303 13.1518 85.9698 12.9878 87.1615 12.9878C88.3024 12.9878 89.3124 13.1401 90.1914 13.4448C91.0703 13.7495 91.8099 14.1753 92.41 14.7222C93.01 15.2612 93.4665 15.9057 93.7791 16.6557C94.0919 17.3979 94.2482 18.2104 94.2482 19.0933C94.2482 19.9136 94.1003 20.6909 93.8045 21.4253C93.5087 22.1518 93.065 22.7925 92.4734 23.3472C91.8817 23.894 91.1422 24.3315 90.2548 24.6597C89.3673 24.98 88.3363 25.1401 87.1615 25.1401C86.0035 25.1401 84.9809 24.9878 84.0935 24.6831C83.2145 24.3706 82.475 23.9448 81.8749 23.4057C81.2834 22.8589 80.8354 22.2183 80.5311 21.4839C80.2353 20.7417 80.0874 19.9448 80.0874 19.0933ZM84.309 19.0933C84.309 19.6089 84.3597 20.1011 84.4612 20.5698C84.5626 21.0307 84.7231 21.437 84.9429 21.7886C85.1711 22.1401 85.4668 22.4214 85.8303 22.6323C86.1937 22.8354 86.6375 22.937 87.1615 22.937C87.6432 22.937 88.0616 22.8433 88.4165 22.6557C88.7799 22.4683 89.0758 22.2065 89.3039 21.8706C89.5406 21.5347 89.7181 21.1323 89.8364 20.6636C89.9548 20.187 90.0139 19.6636 90.0139 19.0933C90.0139 18.5776 89.959 18.0893 89.8491 17.6284C89.7477 17.1597 89.5828 16.7495 89.3547 16.3979C89.1265 16.0386 88.8307 15.7573 88.4673 15.5542C88.1123 15.3433 87.677 15.2378 87.1615 15.2378C86.6459 15.2378 86.2064 15.3393 85.843 15.5425C85.4796 15.7456 85.1837 16.0229 84.9556 16.3745C84.7274 16.7261 84.5626 17.1362 84.4612 17.605C84.3597 18.0737 84.309 18.5698 84.309 19.0933Z" fill="white"/>
<path d="M99.6847 9.03906C99.6847 9.29688 99.6213 9.52734 99.4945 9.73047C99.3677 9.92578 99.203 10.0898 99.0001 10.2227C98.7973 10.3555 98.5606 10.457 98.2901 10.5273C98.0282 10.5898 97.7578 10.6211 97.4788 10.6211C97.183 10.6211 96.8999 10.5859 96.6294 10.5156C96.3674 10.4453 96.1351 10.3438 95.9322 10.2109C95.7294 10.0703 95.5687 9.90234 95.4504 9.70703C95.3321 9.51172 95.2729 9.28906 95.2729 9.03906C95.2729 8.8125 95.3279 8.60547 95.4377 8.41797C95.5561 8.22266 95.7124 8.05469 95.9068 7.91406C96.1012 7.77344 96.3337 7.66406 96.6041 7.58594C96.8746 7.50781 97.1704 7.46875 97.4915 7.46875C97.7704 7.46875 98.0409 7.50391 98.3029 7.57422C98.5734 7.64453 98.81 7.74609 99.0128 7.87891C99.2156 8.01172 99.3763 8.17578 99.4945 8.37109C99.6213 8.56641 99.6847 8.78906 99.6847 9.03906ZM99.4945 22.6914C99.4945 23.4336 99.3298 24.0039 99.0001 24.4023C98.679 24.8008 98.1423 25 97.3901 25C96.6802 25 96.1772 24.8008 95.8815 24.4023C95.5941 24.0039 95.4504 23.4336 95.4504 22.6914V15.5195C95.4504 14.7773 95.5941 14.207 95.8815 13.8086C96.1772 13.4102 96.6802 13.2109 97.3901 13.2109C98.1423 13.2109 98.679 13.4102 99.0001 13.8086C99.3298 14.207 99.4945 14.7773 99.4945 15.5195V22.6914Z" fill="white"/>
<path d="M105.324 19.0698C105.324 19.5933 105.366 20.0815 105.451 20.5347C105.544 20.9878 105.696 21.3862 105.907 21.73C106.127 22.0659 106.414 22.3315 106.769 22.5268C107.132 22.7222 107.58 22.8198 108.113 22.8198C108.603 22.8198 109.013 22.7261 109.343 22.5386C109.681 22.3433 109.951 22.0776 110.154 21.7417C110.357 21.3979 110.501 20.9956 110.585 20.5347C110.678 20.0737 110.724 19.5737 110.724 19.0347C110.724 18.605 110.691 18.1675 110.623 17.7222C110.556 17.269 110.429 16.8589 110.243 16.4917C110.057 16.1245 109.799 15.8237 109.47 15.5893C109.14 15.355 108.709 15.2378 108.176 15.2378C107.644 15.2378 107.192 15.3159 106.82 15.4722C106.456 15.6284 106.161 15.8667 105.932 16.187C105.713 16.5073 105.556 16.9097 105.463 17.394C105.37 17.8706 105.324 18.4292 105.324 19.0698ZM105.311 15.519C105.523 15.105 105.793 14.7417 106.123 14.4292C106.452 14.1167 106.816 13.855 107.213 13.644C107.61 13.4331 108.024 13.2768 108.455 13.1753C108.895 13.0659 109.33 13.0112 109.761 13.0112C110.538 13.0112 111.24 13.1714 111.866 13.4917C112.491 13.812 113.023 14.2495 113.463 14.8042C113.91 15.3511 114.253 15.9995 114.49 16.7495C114.726 17.4917 114.845 18.2886 114.845 19.1401C114.845 20.0229 114.717 20.8315 114.464 21.5659C114.22 22.3003 113.868 22.9331 113.412 23.4643C112.964 23.9878 112.423 24.3979 111.789 24.6948C111.164 24.9917 110.467 25.1401 109.698 25.1401C108.751 25.1401 107.906 24.937 107.162 24.5307C106.418 24.1245 105.801 23.5542 105.311 22.8198V27.0386C105.311 27.7807 105.146 28.3511 104.817 28.7495C104.496 29.1479 103.959 29.3472 103.207 29.3472C102.497 29.3472 101.994 29.1479 101.698 28.7495C101.411 28.3511 101.267 27.7807 101.267 27.0386V15.519C101.267 14.7768 101.411 14.2065 101.698 13.8081C101.994 13.4097 102.497 13.2104 103.207 13.2104C103.959 13.2104 104.496 13.4097 104.817 13.8081C105.146 14.2065 105.311 14.7768 105.311 15.519Z" fill="white"/>
<path d="M119.306 16.3511C119.306 16.6557 119.45 16.894 119.736 17.0659C120.024 17.23 120.421 17.3667 120.929 17.4761C121.41 17.5776 121.904 17.6753 122.412 17.769C122.919 17.8628 123.414 17.9722 123.895 18.0972C124.376 18.2143 124.829 18.355 125.252 18.519C125.673 18.6831 126.046 18.8901 126.367 19.1401C126.688 19.3823 126.941 19.6792 127.127 20.0307C127.314 20.3745 127.407 20.7886 127.407 21.2729C127.407 21.8823 127.271 22.4253 127.001 22.9018C126.73 23.3706 126.346 23.769 125.848 24.0972C125.358 24.4253 124.77 24.6792 124.085 24.8589C123.401 25.0386 122.644 25.1323 121.816 25.1401C121.03 25.1401 120.273 25.0933 119.546 24.9995C118.82 24.9136 118.173 24.7768 117.606 24.5893C117.049 24.4018 116.601 24.1714 116.263 23.8979C115.925 23.6167 115.756 23.2886 115.756 22.9136C115.756 22.5854 115.87 22.3315 116.098 22.1518C116.327 21.9722 116.618 21.8823 116.973 21.8823C117.109 21.8823 117.269 21.9057 117.455 21.9526C117.641 21.9995 117.843 22.0581 118.063 22.1284C118.282 22.1987 118.515 22.2768 118.761 22.3628C119.014 22.4409 119.276 22.5112 119.546 22.5737C119.885 22.6597 120.231 22.73 120.586 22.7847C120.949 22.8315 121.321 22.855 121.702 22.855C121.938 22.855 122.171 22.8354 122.399 22.7964C122.627 22.7495 122.83 22.6831 123.008 22.5972C123.194 22.5034 123.345 22.3862 123.464 22.2456C123.582 22.105 123.654 21.9331 123.68 21.73C123.705 21.6831 123.726 21.6362 123.742 21.5893C123.76 21.5425 123.768 21.4878 123.768 21.4253C123.768 21.2065 123.658 21.0112 123.438 20.8393C123.227 20.6675 122.927 20.5307 122.538 20.4292C121.887 20.2886 121.266 20.1597 120.674 20.0425C120.084 19.9253 119.534 19.8003 119.027 19.6675C118.528 19.5347 118.072 19.3823 117.657 19.2104C117.252 19.0386 116.905 18.8276 116.618 18.5776C116.34 18.3276 116.119 18.0268 115.959 17.6753C115.806 17.3237 115.73 16.8979 115.73 16.3979C115.73 15.8589 115.861 15.3784 116.123 14.9565C116.394 14.5268 116.779 14.1675 117.277 13.8784C117.776 13.5893 118.38 13.3706 119.091 13.2222C119.8 13.0659 120.603 12.9878 121.499 12.9878C123.104 12.9878 124.326 13.1675 125.163 13.5268C126.008 13.8784 126.431 14.3393 126.431 14.9097C126.431 15.23 126.316 15.4761 126.088 15.6479C125.86 15.812 125.585 15.894 125.265 15.894C125.095 15.894 124.917 15.8667 124.731 15.812C124.554 15.7495 124.338 15.6831 124.085 15.6128C123.831 15.5347 123.527 15.4683 123.172 15.4136C122.826 15.3511 122.394 15.3198 121.88 15.3198C121.49 15.3198 121.135 15.3354 120.814 15.3667C120.501 15.3979 120.231 15.4526 120.003 15.5307C119.783 15.6089 119.61 15.7143 119.483 15.8472C119.364 15.98 119.306 16.1479 119.306 16.3511Z" fill="white"/>
<path d="M132.552 20.6518C132.552 21.019 132.603 21.3393 132.705 21.6128C132.814 21.8862 132.962 22.1167 133.148 22.3042C133.334 22.4839 133.55 22.6206 133.794 22.7143C134.048 22.8003 134.319 22.8433 134.605 22.8433C134.944 22.8433 135.27 22.7964 135.582 22.7026C135.895 22.6089 136.17 22.4643 136.407 22.269C136.651 22.0737 136.846 21.8276 136.99 21.5307C137.133 21.2339 137.205 20.8862 137.205 20.4878V15.519C137.205 14.7768 137.349 14.2065 137.636 13.8081C137.932 13.4097 138.435 13.2104 139.145 13.2104C139.897 13.2104 140.433 13.4097 140.754 13.8081C141.084 14.2065 141.249 14.7768 141.249 15.519V22.6909C141.249 23.4331 141.084 24.0034 140.754 24.4018C140.433 24.8003 139.897 24.9995 139.145 24.9995C138.435 24.9995 137.932 24.8003 137.636 24.4018C137.349 24.0034 137.205 23.4331 137.205 22.6909C137.028 23.0503 136.795 23.3784 136.507 23.6753C136.228 23.9722 135.899 24.23 135.518 24.4487C135.146 24.6597 134.733 24.8237 134.277 24.9409C133.829 25.0581 133.342 25.1167 132.818 25.1167C132.252 25.1167 131.707 25.0268 131.183 24.8472C130.668 24.6597 130.211 24.3862 129.814 24.0268C129.417 23.6597 129.1 23.2065 128.863 22.6675C128.626 22.1284 128.508 21.4995 128.508 20.7807V15.519C128.508 14.7768 128.652 14.2065 128.939 13.8081C129.235 13.4097 129.737 13.2104 130.448 13.2104C131.2 13.2104 131.736 13.4097 132.058 13.8081C132.388 14.2065 132.552 14.7768 132.552 15.519V20.6518Z" fill="white"/>
<path d="M143.084 15.519C143.084 14.7768 143.228 14.2065 143.516 13.8081C143.811 13.4097 144.314 13.2104 145.024 13.2104C145.777 13.2104 146.314 13.4097 146.635 13.8081C146.964 14.2065 147.129 14.7768 147.129 15.519C147.298 15.144 147.526 14.8042 147.814 14.4995C148.11 14.187 148.444 13.9214 148.815 13.7026C149.196 13.4839 149.606 13.3159 150.045 13.1987C150.484 13.0737 150.941 13.0112 151.414 13.0112C151.854 13.0112 152.284 13.0659 152.707 13.1753C153.138 13.2768 153.536 13.4448 153.899 13.6792C154.27 13.9057 154.596 14.1948 154.875 14.5464C155.154 14.8979 155.37 15.3198 155.522 15.812C155.784 15.2886 156.092 14.8472 156.447 14.4878C156.802 14.1284 157.187 13.8393 157.6 13.6206C158.015 13.4018 158.446 13.2456 158.894 13.1518C159.351 13.0581 159.806 13.0112 160.263 13.0112C160.804 13.0112 161.32 13.1011 161.81 13.2807C162.308 13.4604 162.743 13.7339 163.115 14.1011C163.496 14.4604 163.796 14.9175 164.015 15.4722C164.244 16.019 164.357 16.6597 164.357 17.394V22.6909C164.357 23.4331 164.193 24.0034 163.863 24.4018C163.543 24.8003 163.005 24.9995 162.253 24.9995C161.544 24.9995 161.041 24.8003 160.745 24.4018C160.457 24.0034 160.314 23.4331 160.314 22.6909V17.5581C160.314 17.2065 160.263 16.894 160.162 16.6206C160.06 16.3393 159.916 16.105 159.73 15.9175C159.553 15.7222 159.342 15.5776 159.096 15.4839C158.852 15.3823 158.589 15.3315 158.311 15.3315C157.964 15.3315 157.635 15.3823 157.322 15.4839C157.01 15.5854 156.735 15.7417 156.498 15.9526C156.27 16.1636 156.084 16.4331 155.94 16.7612C155.805 17.0893 155.737 17.4839 155.737 17.9448V22.6909C155.737 23.4331 155.572 24.0034 155.243 24.4018C154.922 24.8003 154.385 24.9995 153.632 24.9995C152.923 24.9995 152.419 24.8003 152.124 24.4018C151.836 24.0034 151.693 23.4331 151.693 22.6909V17.7807C151.693 16.9761 151.511 16.3667 151.148 15.9526C150.792 15.5386 150.307 15.3315 149.69 15.3315C149.327 15.3315 148.988 15.3862 148.675 15.4956C148.363 15.605 148.092 15.7651 147.864 15.9761C147.636 16.187 147.454 16.4487 147.319 16.7612C147.192 17.0737 147.129 17.4331 147.129 17.8393V22.6909C147.129 23.4331 146.964 24.0034 146.635 24.4018C146.314 24.8003 145.777 24.9995 145.024 24.9995C144.314 24.9995 143.811 24.8003 143.516 24.4018C143.228 24.0034 143.084 23.4331 143.084 22.6909V15.519Z" fill="white"/>
<path d="M18.8908 22.9995C15.306 22.9995 12.3999 20.3132 12.3999 16.9995C12.3999 13.6858 15.306 10.9995 18.8908 10.9995C22.4756 10.9995 25.3817 13.6858 25.3817 16.9995C25.3817 20.3132 22.4756 22.9995 18.8908 22.9995Z" fill="white"/>
<path d="M6.31586 19.0492C4.43485 19.3558 3.14552 21.0354 3.86758 22.67C4.87566 24.952 6.48392 26.9852 8.56892 28.574C11.5503 30.8457 15.3107 32.0596 19.1739 31.9973C23.0371 31.935 26.7494 30.6005 29.6433 28.2339C31.6669 26.5789 33.1975 24.495 34.1189 22.1819C34.7788 20.525 33.4267 18.888 31.5353 18.6423C29.6439 18.3966 27.9457 19.6692 27.0114 21.2092C26.505 22.0439 25.8476 22.8012 25.0601 23.4453C23.3997 24.8032 21.2697 25.5688 19.0533 25.6046C16.8367 25.6403 14.6791 24.9439 12.9686 23.6404C12.1571 23.0221 11.4716 22.2865 10.9339 21.4686C9.94211 19.9597 8.19687 18.7426 6.31586 19.0492Z" fill="white"/>
<path d="M34.9926 18.8745C35.0755 18.2604 35.1181 17.6348 35.1181 17C35.1181 8.71573 27.853 2 18.8908 2C9.92877 2 2.66357 8.71573 2.66357 17C2.66357 17.8147 2.73384 18.6142 2.86908 19.3937C3.61443 18.4505 4.77773 17.7772 6.03426 17.5724C7.39377 17.3508 8.62935 17.6556 9.67405 18.2253C9.61233 17.8251 9.58039 17.416 9.58039 17C9.58039 12.2469 13.7489 8.3937 18.8908 8.3937C24.0328 8.3937 28.2013 12.2469 28.2013 17C28.2013 17.3134 28.1831 17.6229 28.1479 17.9276C29.1705 17.3243 30.394 16.9796 31.7613 17.1573C33.0245 17.3214 34.2121 17.9564 34.9926 18.8745Z" fill="white"/>
</svg>
