<svg width="183" height="34" viewBox="0 0 183 34" fill="none" xmlns="http://www.w3.org/2000/svg">
<g clip-path="url(#clip0_284_183)">
<path d="M72.306 6.67676H68.5V23.8502H79.0362V20.4852H72.306V6.67676Z" fill="white"/>
<path d="M79.3994 18.0247C79.3994 21.6915 81.8594 24.1283 85.5725 24.1283C89.2625 24.1283 91.7225 21.6915 91.7225 18.0247C91.7225 14.358 89.2625 11.8979 85.5725 11.8979C81.8594 11.8979 79.3994 14.358 79.3994 18.0247ZM82.9965 18.0015C82.9965 16.261 84.0177 15.1006 85.5725 15.1006C87.1042 15.1006 88.1254 16.261 88.1254 18.0015C88.1254 19.7653 87.1042 20.9257 85.5725 20.9257C84.0177 20.9257 82.9965 19.7653 82.9965 18.0015Z" fill="white"/>
<path d="M92.2979 17.8396C92.2979 21.3438 94.5723 23.7109 97.798 23.7109C99.353 23.7109 100.699 23.154 101.372 22.2489V23.8502C101.372 25.4515 100.374 26.519 98.6103 26.519C97.0322 26.519 95.9414 25.7764 95.8718 24.4536H92.2515C92.5764 27.633 95.0364 29.768 98.4014 29.768C102.37 29.768 104.876 27.1921 104.876 23.1075V12.2466H101.65L101.465 13.4301C100.815 12.4786 99.4458 11.8521 97.8677 11.8521C94.6186 11.8521 92.2979 14.2888 92.2979 17.8396ZM95.9183 17.7467C95.9183 16.0757 97.0322 14.9618 98.4479 14.9618C100.096 14.9618 101.302 16.0525 101.302 17.7467C101.302 19.4409 100.119 20.6012 98.471 20.6012C97.0555 20.6012 95.9183 19.4409 95.9183 17.7467Z" fill="white"/>
<path d="M105.917 18.0247C105.917 21.6915 108.378 24.1283 112.091 24.1283C115.781 24.1283 118.241 21.6915 118.241 18.0247C118.241 14.358 115.781 11.8979 112.091 11.8979C108.378 11.8979 105.917 14.358 105.917 18.0247ZM109.514 18.0015C109.514 16.261 110.536 15.1006 112.091 15.1006C113.622 15.1006 114.643 16.261 114.643 18.0015C114.643 19.7653 113.622 20.9257 112.091 20.9257C110.536 20.9257 109.514 19.7653 109.514 18.0015Z" fill="white"/>
<path d="M121.322 10.4368C122.435 10.4368 123.341 9.53169 123.341 8.39453C123.341 7.25736 122.435 6.37549 121.322 6.37549C120.185 6.37549 119.28 7.25736 119.28 8.39453C119.28 9.53169 120.185 10.4368 121.322 10.4368ZM119.511 23.8506H123.109V12.247H119.511V23.8506Z" fill="white"/>
<path d="M125.204 29.4202H128.731V22.6901C129.404 23.572 130.936 24.1754 132.537 24.1754C135.994 24.1754 138.083 21.5298 137.991 17.863C137.897 14.1266 135.739 11.8755 132.514 11.8755C130.866 11.8755 129.311 12.5949 128.661 13.6625L128.475 12.2468H125.204V29.4202ZM128.8 18.0486C128.8 16.3081 129.96 15.1478 131.632 15.1478C133.325 15.1478 134.393 16.3313 134.393 18.0486C134.393 19.766 133.325 20.9496 131.632 20.9496C129.96 20.9496 128.8 19.7892 128.8 18.0486Z" fill="white"/>
<path d="M138.371 20.1837C138.464 22.5277 140.321 24.1521 143.245 24.1521C146.053 24.1521 148.003 22.6669 148.003 20.2766C148.003 18.5593 146.982 17.4221 145.078 16.9579L143.013 16.4473C142.27 16.2617 141.806 16.076 141.806 15.4726C141.806 14.8692 142.293 14.4747 143.013 14.4747C143.825 14.4747 144.358 15.0085 144.336 15.7975H147.562C147.468 13.3839 145.635 11.8755 143.082 11.8755C140.507 11.8755 138.58 13.4072 138.58 15.7279C138.58 17.2828 139.439 18.5593 141.736 19.1626L143.778 19.6963C144.382 19.8588 144.637 20.1373 144.637 20.5318C144.637 21.112 144.103 21.4834 143.198 21.4834C142.154 21.4834 141.597 20.996 141.597 20.1837H138.371Z" fill="white"/>
<path d="M153.472 24.1519C154.889 24.1519 156.304 23.5021 157.023 22.5506L157.256 23.8503H160.621V12.2466H157.047V18.2805C157.047 20.021 156.537 20.9725 154.889 20.9725C153.612 20.9725 152.776 20.3923 152.776 18.2341V12.2466H149.202V19.5336C149.202 22.2954 150.734 24.1519 153.472 24.1519Z" fill="white"/>
<path d="M166.288 23.8502V17.5146C166.288 15.5652 167.332 15.0082 168.354 15.0082C169.49 15.0082 170.233 15.7045 170.233 17.1433V23.8502H173.761V17.5146C173.761 15.542 174.782 14.985 175.803 14.985C176.94 14.985 177.706 15.6812 177.706 17.1433V23.8502H181.188V16.2614C181.188 13.6158 179.795 11.8521 176.8 11.8521C175.13 11.8521 173.761 12.6642 173.157 13.9174C172.461 12.6642 171.254 11.8521 169.328 11.8521C168.052 11.8521 166.868 12.4322 166.172 13.3605L166.033 12.2466H162.69V23.8502H166.288Z" fill="white"/>
<path d="M0.5 17C0.5 7.61115 8.11115 0 17.5 0H39.8125C49.2014 0 56.8125 7.61115 56.8125 17V34H17.5C8.11115 34 0.5 26.3889 0.5 17Z" fill="white"/>
<path d="M39.8125 6.37549H17.5C11.632 6.37549 6.875 11.1325 6.875 17.0005C6.875 22.8685 11.632 27.6255 17.5 27.6255H39.8125C45.6805 27.6255 50.4375 22.8685 50.4375 17.0005C50.4375 11.1325 45.6805 6.37549 39.8125 6.37549Z" fill="#7D7D7D"/>
<path d="M17.5 22.3125C20.434 22.3125 22.8125 19.934 22.8125 17C22.8125 14.066 20.434 11.6875 17.5 11.6875C14.566 11.6875 12.1875 14.066 12.1875 17C12.1875 19.934 14.566 22.3125 17.5 22.3125Z" fill="white"/>
<path d="M15.3755 15.9385C15.9623 15.9385 16.438 15.4628 16.438 14.876C16.438 14.2892 15.9623 13.8135 15.3755 13.8135C14.7887 13.8135 14.313 14.2892 14.313 14.876C14.313 15.4628 14.7887 15.9385 15.3755 15.9385Z" fill="white"/>
<path d="M40.875 22.3125C43.809 22.3125 46.1875 19.934 46.1875 17C46.1875 14.066 43.809 11.6875 40.875 11.6875C37.941 11.6875 35.5625 14.066 35.5625 17C35.5625 19.934 37.941 22.3125 40.875 22.3125Z" fill="white"/>
<path d="M38.7505 15.9385C39.3373 15.9385 39.813 15.4628 39.813 14.876C39.813 14.2892 39.3373 13.8135 38.7505 13.8135C38.1637 13.8135 37.688 14.2892 37.688 14.876C37.688 15.4628 38.1637 15.9385 38.7505 15.9385Z" fill="white"/>
</g>
<defs>
<clipPath id="clip0_284_183">
<rect width="181.688" height="34" fill="white" transform="translate(0.5)"/>
</clipPath>
</defs>
</svg>
