<svg width="135" height="34" viewBox="0 0 135 34" fill="none" xmlns="http://www.w3.org/2000/svg">
<path d="M15.9503 6.6499V2.3999H2.55029V31.5999H15.9503V27.3499C13.2053 27.3499 10.5727 26.2594 8.63173 24.3184C6.69073 22.3774 5.60029 19.7449 5.60029 16.9999C5.60029 14.2549 6.69073 11.6223 8.63173 9.68135C10.5727 7.74035 13.2053 6.6499 15.9503 6.6499Z" fill="white"/>
<path d="M15.9502 6.64941V27.3494C18.6952 27.3494 21.3278 26.2589 23.2688 24.3179C25.2098 22.3769 26.3002 19.7444 26.3002 16.9994C26.3002 14.2544 25.2098 11.6218 23.2688 9.68086C21.3278 7.73986 18.6952 6.64941 15.9502 6.64941Z" fill="white"/>
<path d="M33.8198 9.25H36.8198V23.7H33.8198V9.25Z" fill="white"/>
<path d="M38.5 18.7494C38.5 17.7098 38.8087 16.6936 39.3869 15.8296C39.9651 14.9656 40.7868 14.2927 41.7479 13.8962C42.709 13.4998 43.7661 13.3976 44.7853 13.6026C45.8045 13.8076 46.7399 14.3106 47.4729 15.0478C48.2059 15.7851 48.7036 16.7233 48.9028 17.7437C49.1019 18.7641 48.9937 19.8206 48.5917 20.7794C48.1897 21.7381 47.5122 22.556 46.6449 23.1292C45.7776 23.7025 44.7596 24.0053 43.72 23.9994C43.0305 24.0048 42.3468 23.8725 41.7091 23.6101C41.0714 23.3478 40.4924 22.9608 40.0062 22.4719C39.52 21.9829 39.1364 21.4017 38.8777 20.7625C38.6191 20.1233 38.4907 19.4389 38.5 18.7494ZM46.02 18.7494C46.0082 18.3012 45.8645 17.8664 45.6069 17.4995C45.3493 17.1325 44.9893 16.8496 44.5717 16.6862C44.1542 16.5228 43.6978 16.4861 43.2596 16.5808C42.8213 16.6754 42.4207 16.8971 42.1078 17.2183C41.7949 17.5394 41.5836 17.9456 41.5004 18.3862C41.4172 18.8268 41.4657 19.2821 41.6399 19.6952C41.8141 20.1083 42.1062 20.461 42.4798 20.7089C42.8533 20.9569 43.2916 21.0892 43.74 21.0894C44.0453 21.0954 44.3485 21.0383 44.6307 20.9217C44.9129 20.8052 45.168 20.6317 45.3801 20.4121C45.5922 20.1925 45.7567 19.9314 45.8634 19.6454C45.9701 19.3593 46.0166 19.0543 46 18.7494H46.02Z" fill="white"/>
<path d="M60.8098 13.7996V23.2096C60.8098 26.5296 58.2098 27.9396 55.5798 27.9396C54.6521 28.0157 53.7216 27.8314 52.8931 27.4074C52.0645 26.9834 51.3707 26.3365 50.8898 25.5396L53.4198 24.0796C53.6248 24.493 53.9509 24.834 54.3547 25.0573C54.7585 25.2806 55.2207 25.3756 55.6798 25.3296C55.9723 25.3656 56.2691 25.3366 56.549 25.2446C56.829 25.1525 57.0851 24.9998 57.2991 24.7972C57.5132 24.5946 57.6798 24.3473 57.7871 24.0728C57.8944 23.7984 57.9397 23.5036 57.9198 23.2096V22.2996C57.5707 22.7229 57.1277 23.0589 56.6261 23.2811C56.1244 23.5033 55.5779 23.6055 55.0298 23.5796C53.7037 23.5796 52.432 23.0528 51.4943 22.1151C50.5566 21.1775 50.0298 19.9057 50.0298 18.5796C50.0298 17.2535 50.5566 15.9818 51.4943 15.0441C52.432 14.1064 53.7037 13.5796 55.0298 13.5796C55.5779 13.5537 56.1244 13.6559 56.6261 13.8781C57.1277 14.1003 57.5707 14.4363 57.9198 14.8596V13.8596L60.8098 13.7996ZM57.9198 18.5496C57.9397 18.0712 57.8161 17.5977 57.5648 17.1901C57.3135 16.7825 56.9461 16.4594 56.5096 16.2623C56.0732 16.0652 55.5879 16.0032 55.1159 16.0842C54.644 16.1652 54.207 16.3855 53.8613 16.7168C53.5156 17.0481 53.2769 17.4753 53.1759 17.9434C53.0749 18.4115 53.1162 18.899 53.2945 19.3434C53.4729 19.7878 53.7801 20.1687 54.1766 20.4371C54.5732 20.7055 55.041 20.8492 55.5198 20.8496C55.8323 20.8721 56.146 20.8288 56.4406 20.7226C56.7353 20.6163 57.0045 20.4494 57.2306 20.2326C57.4568 20.0159 57.635 19.7541 57.7537 19.4642C57.8724 19.1743 57.929 18.8627 57.9198 18.5496Z" fill="white"/>
<path d="M62.4999 18.75C62.4999 17.7112 62.8081 16.6958 63.3854 15.8322C63.9627 14.9686 64.7832 14.2957 65.7431 13.8987C66.703 13.5016 67.7591 13.3982 68.7778 13.6016C69.7965 13.805 70.7319 14.306 71.4658 15.0412C72.1996 15.7765 72.6988 16.7129 72.9002 17.7319C73.1017 18.751 72.9963 19.8069 72.5974 20.766C72.1985 21.7252 71.524 22.5444 70.6594 23.1201C69.7947 23.6958 68.7787 24.002 67.7399 24C67.0491 24.0067 66.3638 23.8754 65.7244 23.6138C65.085 23.3522 64.5042 22.9656 64.0162 22.4766C63.5281 21.9876 63.1426 21.4061 62.8822 20.7662C62.6219 20.1263 62.4919 19.4408 62.4999 18.75ZM70.0199 18.75C70.0081 18.3014 69.8641 17.8662 69.6061 17.499C69.3481 17.1319 68.9874 16.849 68.5693 16.6859C68.1512 16.5228 67.6943 16.4867 67.2558 16.5822C66.8173 16.6776 66.4167 16.9004 66.1042 17.2225C65.7917 17.5446 65.5812 17.9518 65.4992 18.393C65.4171 18.8342 65.467 19.2898 65.6427 19.7027C65.8184 20.1157 66.1121 20.4676 66.487 20.7144C66.8618 20.9611 67.3011 21.0918 67.7499 21.09C68.0552 21.096 68.3584 21.0389 68.6406 20.9223C68.9228 20.8058 69.1779 20.6323 69.39 20.4127C69.6021 20.1931 69.7666 19.932 69.8733 19.646C69.98 19.3599 70.0265 19.0549 70.0099 18.75H70.0199Z" fill="white"/>
<path d="M74.3701 11.1501C74.3701 10.7981 74.4745 10.4539 74.6701 10.1612C74.8657 9.86848 75.1437 9.64034 75.4689 9.50561C75.7942 9.37089 76.1521 9.33564 76.4974 9.40432C76.8426 9.473 77.1598 9.64253 77.4088 9.89147C77.6577 10.1404 77.8272 10.4576 77.8959 10.8028C77.9646 11.1481 77.9293 11.506 77.7946 11.8313C77.6599 12.1565 77.4317 12.4345 77.139 12.6301C76.8463 12.8257 76.5022 12.9301 76.1501 12.9301C75.6796 12.9249 75.2299 12.7357 74.8972 12.403C74.5645 12.0703 74.3753 11.6206 74.3701 11.1501ZM74.6601 13.8001H77.6601V23.7001H74.6601V13.8001Z" fill="white"/>
<path d="M90.5 18.7501C90.5336 19.4085 90.4367 20.0671 90.2148 20.6879C89.993 21.3087 89.6505 21.8795 89.2072 22.3674C88.7638 22.8554 88.2284 23.2508 87.6316 23.531C87.0349 23.8112 86.3886 23.9706 85.73 24.0001C85.1711 24.0373 84.611 23.9478 84.0916 23.7383C83.5721 23.5287 83.1067 23.2046 82.73 22.7901V27.6801H79.73V13.8001H82.73V14.7301C83.1072 14.3168 83.573 13.9942 84.0925 13.7864C84.612 13.5785 85.1718 13.4909 85.73 13.5301C86.386 13.5596 87.0297 13.7181 87.6244 13.9964C88.2191 14.2747 88.7532 14.6675 89.1961 15.1522C89.6391 15.6369 89.9822 16.2041 90.2059 16.8215C90.4296 17.4388 90.5296 18.0941 90.5 18.7501ZM87.5 18.7501C87.4882 18.2856 87.3395 17.835 87.0727 17.4547C86.8059 17.0744 86.4327 16.7812 86 16.6121C85.5673 16.4429 85.0943 16.4053 84.6402 16.5038C84.1862 16.6023 83.7714 16.8327 83.4477 17.166C83.124 17.4993 82.9059 17.9207 82.8208 18.3775C82.7356 18.8342 82.7871 19.3059 82.9689 19.7335C83.1507 20.161 83.4546 20.5254 83.8426 20.781C84.2306 21.0366 84.6854 21.1719 85.15 21.1701C85.4682 21.1836 85.7857 21.1297 86.0816 21.0119C86.3776 20.8941 86.6453 20.7151 86.8672 20.4866C87.0891 20.2581 87.2601 19.9852 87.3692 19.686C87.4783 19.3867 87.5228 19.0678 87.5 18.7501Z" fill="white"/>
<path d="M99.63 20.7302C99.63 23.0102 97.63 23.9802 95.51 23.9802C94.6453 24.058 93.7772 23.8747 93.0178 23.454C92.2584 23.0333 91.6426 22.3945 91.25 21.6202L93.83 20.1602C93.9322 20.517 94.1538 20.8279 94.4578 21.0409C94.7618 21.2539 95.1297 21.356 95.5 21.3302C96.21 21.3302 96.57 21.1102 96.57 20.7102C96.57 19.6202 91.7 20.2002 91.7 16.7702C91.7 14.6102 93.52 13.5302 95.58 13.5302C96.363 13.4951 97.141 13.6728 97.8311 14.0443C98.5213 14.4158 99.098 14.9673 99.5 15.6402L96.92 17.0002C96.806 16.7422 96.6198 16.5228 96.3838 16.3684C96.1477 16.214 95.872 16.1313 95.59 16.1302C95.07 16.1302 94.76 16.3302 94.76 16.6802C94.76 17.8202 99.63 17.0702 99.63 20.7302Z" fill="white"/>
<path d="M110.5 13.8003V23.7003H107.5V22.7703C107.159 23.182 106.726 23.5077 106.237 23.7214C105.747 23.9351 105.214 24.0306 104.68 24.0003C102.68 24.0003 100.97 22.5703 100.97 19.9003V13.8003H103.97V19.4503C103.946 19.6865 103.974 19.925 104.052 20.1494C104.13 20.3737 104.255 20.5785 104.419 20.7497C104.584 20.9208 104.784 21.0542 105.005 21.1407C105.226 21.2271 105.463 21.2645 105.7 21.2503C106.78 21.2503 107.54 20.6103 107.54 19.2503V13.8003H110.5Z" fill="white"/>
<path d="M127.5 17.6197V23.6997H124.5V17.8797C124.5 16.8797 124.03 16.2597 123.08 16.2597C122.13 16.2597 121.53 16.9497 121.53 18.1197V23.6997H118.53V17.8797C118.53 16.8797 118.06 16.2597 117.11 16.2597C116.16 16.2597 115.56 16.9497 115.56 18.1197V23.6997H112.56V13.7997H115.56V14.7097C115.871 14.3077 116.276 13.9893 116.741 13.7833C117.205 13.5773 117.714 13.4901 118.22 13.5297C118.727 13.5032 119.233 13.6092 119.687 13.8371C120.141 14.065 120.528 14.4071 120.81 14.8297C121.14 14.3881 121.576 14.0373 122.078 13.81C122.579 13.5826 123.131 13.4862 123.68 13.5297C126.02 13.5297 127.5 15.1497 127.5 17.6197Z" fill="white"/>
<path d="M130.02 13.7398C131.235 13.7398 132.22 12.7548 132.22 11.5398C132.22 10.3248 131.235 9.33984 130.02 9.33984C128.805 9.33984 127.82 10.3248 127.82 11.5398C127.82 12.7548 128.805 13.7398 130.02 13.7398Z" fill="white"/>
</svg>
