<svg width="147" height="34" viewBox="0 0 147 34" fill="none" xmlns="http://www.w3.org/2000/svg">
<g clip-path="url(#clip0_284_114)">
<path d="M42.1802 24.6505H51.83V21.9027H45.1227V9.07227H42.1802V24.6505Z" fill="white"/>
<path d="M57.6294 24.9743C58.7978 24.9743 59.8255 24.7147 60.7126 24.1954C61.6069 23.6689 62.3028 22.9441 62.8005 22.021C63.3053 21.0906 63.5578 20.0196 63.5578 18.808C63.5578 17.6036 63.3089 16.5398 62.8113 15.6166C62.3136 14.6863 61.6177 13.9578 60.7234 13.4313C59.8363 12.9048 58.805 12.6416 57.6294 12.6416C56.4754 12.6416 55.4549 12.9013 54.5679 13.4205C53.6808 13.9398 52.9848 14.6646 52.4799 15.595C51.9751 16.5181 51.7227 17.5891 51.7227 18.808C51.7227 20.0124 51.9679 21.0798 52.4583 22.0101C52.9559 22.9333 53.6483 23.6581 54.5354 24.1846C55.4225 24.7111 56.4538 24.9743 57.6294 24.9743ZM57.6294 22.2265C56.7134 22.2265 56.0175 21.92 55.5415 21.307C55.0727 20.6868 54.8383 19.8538 54.8383 18.808C54.8383 17.7911 55.0619 16.9689 55.5091 16.3414C55.9634 15.7068 56.6702 15.3894 57.6294 15.3894C58.5598 15.3894 59.2593 15.6996 59.7281 16.3198C60.2041 16.9401 60.4421 17.7694 60.4421 18.808C60.4421 19.8105 60.2078 20.6326 59.7389 21.2745C59.2774 21.9091 58.5742 22.2265 57.6294 22.2265Z" fill="white"/>
<path d="M69.3766 24.9743C69.9248 24.9743 70.4296 24.9094 70.8912 24.7796C71.36 24.6498 71.7855 24.4659 72.1678 24.2279V25.4071C72.1822 25.8398 72.0704 26.2004 71.8324 26.4889C71.6016 26.7846 71.2915 27.0046 70.902 27.1488C70.5126 27.3003 70.0979 27.376 69.658 27.376C69.2468 27.376 68.8646 27.2858 68.5112 27.1056C68.165 26.9253 67.8981 26.662 67.7106 26.3158L64.9845 27.6356C65.4316 28.3929 66.0699 29.0023 66.8993 29.4639C67.7287 29.9327 68.641 30.1671 69.6363 30.1671C70.4946 30.1671 71.2915 30.0517 72.0271 29.8209C72.7628 29.5973 73.383 29.2548 73.8878 28.7931C74.3999 28.3316 74.7497 27.7438 74.9372 27.0298C75.0021 26.7774 75.0454 26.5213 75.067 26.2617C75.0958 26.0093 75.1103 25.7388 75.1103 25.4503V12.9661H72.5356V13.6153C72.1389 13.3051 71.6881 13.0671 71.1833 12.9013C70.6856 12.7281 70.134 12.6416 69.5281 12.6416C68.4103 12.6416 67.4366 12.9085 66.6073 13.4421C65.7778 13.9758 65.1323 14.7079 64.6708 15.6383C64.2164 16.5614 63.9893 17.618 63.9893 18.808C63.9893 19.9763 64.2128 21.0257 64.66 21.9561C65.1143 22.8864 65.7454 23.6221 66.5531 24.163C67.3609 24.7039 68.3021 24.9743 69.3766 24.9743ZM69.8526 22.3563C69.218 22.3563 68.6988 22.1976 68.2948 21.8803C67.891 21.563 67.5916 21.1375 67.397 20.6038C67.2023 20.0629 67.1048 19.4643 67.1048 18.808C67.1048 18.1589 67.2058 17.5675 67.4078 17.0338C67.6097 16.4929 67.9198 16.0638 68.3381 15.7464C68.7636 15.4219 69.3046 15.2596 69.9608 15.2596C70.884 15.2596 71.5439 15.5878 71.9406 16.2441C72.3373 16.8931 72.5356 17.7478 72.5356 18.808C72.5356 19.8681 72.3336 20.7264 71.9298 21.3827C71.5331 22.0318 70.8408 22.3563 69.8526 22.3563Z" fill="white"/>
<path d="M82.0996 24.9743C83.268 24.9743 84.2957 24.7147 85.1828 24.1954C86.0769 23.6689 86.7731 22.9441 87.2703 22.021C87.7752 21.0906 88.0276 20.0196 88.0276 18.808C88.0276 17.6036 87.7794 16.5398 87.2814 15.6166C86.7841 14.6863 86.088 13.9578 85.1936 13.4313C84.3065 12.9048 83.2751 12.6416 82.0996 12.6416C80.9456 12.6416 79.9251 12.9013 79.0381 13.4205C78.151 13.9398 77.455 14.6646 76.9501 15.595C76.4453 16.5181 76.1929 17.5891 76.1929 18.808C76.1929 20.0124 76.4381 21.0798 76.9285 22.0101C77.4261 22.9333 78.1185 23.6581 79.0056 24.1846C79.8927 24.7111 80.924 24.9743 82.0996 24.9743ZM82.0996 22.2265C81.1836 22.2265 80.4877 21.92 80.0117 21.307C79.5429 20.6868 79.3085 19.8538 79.3085 18.808C79.3085 17.7911 79.5321 16.9689 79.9793 16.3414C80.4336 15.7068 81.1404 15.3894 82.0996 15.3894C83.03 15.3894 83.7296 15.6996 84.1983 16.3198C84.6743 16.9401 84.9123 17.7694 84.9123 18.808C84.9123 19.8105 84.6779 20.6326 84.2091 21.2745C83.7476 21.9091 83.0444 22.2265 82.0996 22.2265Z" fill="white"/>
<path d="M89.3247 11.3429H92.2674V8.74658H89.3247V11.3429ZM89.3247 24.6493H92.2674V12.9656H89.3247V24.6493Z" fill="white"/>
<path d="M94.1904 29.8425H97.1544V24.2279C97.5369 24.4659 97.9585 24.6498 98.42 24.7796C98.8892 24.9094 99.3975 24.9743 99.9458 24.9743C101.02 24.9743 101.962 24.7039 102.769 24.163C103.577 23.6221 104.204 22.8864 104.651 21.9561C105.106 21.0257 105.333 19.9763 105.333 18.808C105.333 17.618 105.103 16.5614 104.641 15.6383C104.186 14.7079 103.545 13.9758 102.715 13.4421C101.885 12.9085 100.912 12.6416 99.7945 12.6416C99.1884 12.6416 98.6334 12.7281 98.1285 12.9013C97.6304 13.0671 97.1833 13.3051 96.7872 13.6153V12.9661H94.1904V29.8425ZM99.4698 22.3563C98.4889 22.3563 97.797 22.0318 97.3924 21.3827C96.9886 20.7264 96.7872 19.8681 96.7872 18.808C96.7872 17.7478 96.9852 16.8931 97.3822 16.2441C97.7859 15.5878 98.4455 15.2596 99.3618 15.2596C100.018 15.2596 100.555 15.4219 100.973 15.7464C101.399 16.0638 101.713 16.4929 101.914 17.0338C102.117 17.5675 102.218 18.1589 102.218 18.808C102.218 19.4643 102.12 20.0629 101.925 20.6038C101.731 21.1375 101.432 21.563 101.028 21.8803C100.624 22.1976 100.105 22.3563 99.4698 22.3563Z" fill="white"/>
<path d="M110.664 24.9743C112.193 24.9743 113.39 24.6318 114.256 23.9466C115.121 23.2614 115.554 22.3203 115.554 21.1231C115.554 20.2143 115.272 19.4968 114.71 18.9703C114.155 18.4438 113.21 18.0074 111.876 17.6613C110.967 17.4304 110.289 17.2429 109.842 17.0987C109.402 16.9545 109.11 16.8138 108.965 16.6768C108.828 16.5398 108.76 16.3703 108.76 16.1683C108.76 15.8294 108.922 15.5698 109.247 15.3894C109.579 15.2091 110.015 15.137 110.556 15.1731C111.702 15.2596 112.33 15.7501 112.438 16.6443L115.446 16.1034C115.294 15.0433 114.775 14.2031 113.888 13.5828C113.001 12.9553 111.869 12.6416 110.491 12.6416C109.077 12.6416 107.949 12.9734 107.105 13.6369C106.261 14.3004 105.839 15.1947 105.839 16.3198C105.839 17.2141 106.131 17.9209 106.715 18.4401C107.299 18.9523 108.306 19.3921 109.734 19.76C110.578 19.9836 111.197 20.1638 111.594 20.3009C111.998 20.4379 112.258 20.5786 112.373 20.7228C112.489 20.8598 112.546 21.0438 112.546 21.2745C112.546 21.6423 112.402 21.9308 112.114 22.14C111.826 22.3419 111.414 22.4429 110.88 22.4429C110.231 22.4429 109.694 22.2878 109.269 21.9777C108.851 21.6676 108.579 21.2385 108.457 20.6903L105.45 21.1447C105.644 22.3636 106.193 23.3083 107.094 23.9791C108.003 24.6426 109.193 24.9743 110.664 24.9743Z" fill="white"/>
<path d="M120.981 24.9957C121.825 24.9957 122.561 24.855 123.189 24.5738C123.816 24.2925 124.342 23.9175 124.768 23.4487V24.6495H127.364V12.9658H124.4V18.8942C124.4 19.6155 124.317 20.1996 124.151 20.6468C123.993 21.0867 123.787 21.422 123.535 21.6528C123.282 21.8765 123.012 22.0278 122.723 22.1072C122.435 22.1865 122.165 22.2262 121.912 22.2262C121.285 22.2262 120.798 22.0856 120.452 21.8043C120.113 21.523 119.867 21.1732 119.716 20.755C119.564 20.3366 119.474 19.922 119.445 19.5108C119.417 19.0925 119.402 18.75 119.402 18.4831V12.9658H116.416V19.5217C116.416 19.7163 116.43 20.0265 116.459 20.452C116.488 20.8775 116.572 21.35 116.708 21.8692C116.845 22.3813 117.072 22.8753 117.39 23.3513C117.715 23.8273 118.165 24.2203 118.742 24.5305C119.319 24.8406 120.066 24.9957 120.981 24.9957Z" fill="white"/>
<path d="M129.069 24.6505H132.033V17.5753C132.033 16.9047 132.216 16.3602 132.584 15.9418C132.959 15.5163 133.453 15.3035 134.067 15.3035C134.709 15.3035 135.21 15.52 135.57 15.9527C135.938 16.3782 136.122 16.9768 136.122 17.7485V24.6505H139.065V17.5753C139.065 16.9047 139.248 16.3602 139.616 15.9418C139.991 15.5163 140.485 15.3035 141.098 15.3035C141.741 15.3035 142.241 15.52 142.602 15.9527C142.97 16.3782 143.154 16.9768 143.154 17.7485V24.6505H146.096V16.9695C146.096 15.693 145.753 14.6617 145.068 13.8755C144.391 13.0822 143.385 12.6855 142.05 12.6855C141.3 12.6855 140.612 12.8478 139.984 13.1723C139.356 13.497 138.856 13.9405 138.48 14.503C138.177 13.9549 137.745 13.515 137.182 13.1832C136.619 12.8515 135.92 12.6855 135.083 12.6855C134.376 12.6855 133.728 12.8262 133.136 13.1075C132.544 13.3815 132.054 13.7602 131.665 14.2433V12.9668H129.069V24.6505Z" fill="white"/>
<path d="M17.5 0C8.11113 0 0.5 7.61116 0.5 17C9.88882 17 17.5 9.38885 17.5 0Z" fill="white"/>
<path d="M17.5 34C26.8888 34 34.5 26.3888 34.5 17C25.1111 17 17.5 24.6112 17.5 34Z" fill="white"/>
<path d="M17.5 0C26.8888 0 34.5 7.61116 34.5 17C25.1111 17 17.5 9.38885 17.5 0Z" fill="white"/>
<path d="M17.5 34C8.11113 34 0.499999 26.3888 0.5 17C9.88882 17 17.5 24.6112 17.5 34Z" fill="white"/>
</g>
<defs>
<clipPath id="clip0_284_114">
<rect width="146.2" height="34" fill="white" transform="translate(0.5)"/>
</clipPath>
</defs>
</svg>
