<svg width="149" height="36" viewBox="0 0 149 36" fill="none" xmlns="http://www.w3.org/2000/svg">
<g clip-path="url(#clip0_284_167)">
<path d="M43.7681 25.4218H54.2625V22.2608H47.498V10.3545H43.7681V25.4218Z" fill="white"/>
<path d="M60.4805 23.3141C58.9843 23.3141 58.2046 22.0075 58.2046 20.0477C58.2046 18.0879 58.9843 16.7603 60.4805 16.7603C61.9767 16.7603 62.7775 18.0879 62.7775 20.0477C62.7775 22.0075 61.9767 23.3141 60.4805 23.3141ZM60.5016 25.7586C63.9787 25.7586 66.2546 23.293 66.2546 20.0477C66.2546 16.8025 63.9787 14.3369 60.5016 14.3369C57.0456 14.3369 54.7275 16.8025 54.7275 20.0477C54.7275 23.293 57.0456 25.7586 60.5016 25.7586Z" fill="white"/>
<path d="M72.273 29.1514C73.8746 29.1514 75.2865 28.7932 76.2348 27.9503C77.0988 27.1706 77.6678 25.9905 77.6678 24.3678V14.632H74.3804V15.791H74.3382C73.706 14.8849 72.7367 14.3159 71.3037 14.3159C68.6274 14.3159 66.7729 16.5497 66.7729 19.7107C66.7729 23.0191 69.0278 24.8314 71.4512 24.8314C72.7577 24.8314 73.5796 24.3046 74.2118 23.5881H74.2961V24.6628C74.2961 25.9694 73.685 26.728 72.2309 26.728C71.093 26.728 70.524 26.2433 70.3343 25.6744H67.0048C67.3419 27.9292 69.3017 29.1514 72.273 29.1514ZM72.252 22.2816C70.9665 22.2816 70.1236 21.2279 70.1236 19.6053C70.1236 17.9616 70.9665 16.9079 72.252 16.9079C73.685 16.9079 74.4436 18.1302 74.4436 19.5842C74.4436 21.1015 73.7482 22.2816 72.252 22.2816Z" fill="white"/>
<path d="M84.4278 23.3141C82.9316 23.3141 82.1519 22.0075 82.1519 20.0477C82.1519 18.0879 82.9316 16.7603 84.4278 16.7603C85.924 16.7603 86.7248 18.0879 86.7248 20.0477C86.7248 22.0075 85.924 23.3141 84.4278 23.3141ZM84.4489 25.7586C87.9259 25.7586 90.2014 23.293 90.2014 20.0477C90.2014 16.8025 87.9259 14.3369 84.4489 14.3369C80.9929 14.3369 78.6748 16.8025 78.6748 20.0477C78.6748 23.293 80.9929 25.7586 84.4489 25.7586Z" fill="white"/>
<path d="M91.2046 25.4218H94.6395V14.6323H91.2046V25.4218ZM91.2046 13.1361H94.6395V10.3545H91.2046V13.1361Z" fill="white"/>
<path d="M96.1294 28.9828H99.5643V24.3046H99.6065C100.281 25.2107 101.271 25.7586 102.662 25.7586C105.486 25.7586 107.361 23.5249 107.361 20.0267C107.361 16.7815 105.612 14.3159 102.746 14.3159C101.271 14.3159 100.218 14.9692 99.48 15.9386H99.4168V14.632H96.1294V28.9828ZM101.777 23.1034C100.302 23.1034 99.459 21.9023 99.459 20.1532C99.459 18.4041 100.218 17.0765 101.714 17.0765C103.189 17.0765 103.884 18.2987 103.884 20.1532C103.884 21.9866 103.084 23.1034 101.777 23.1034Z" fill="white"/>
<path d="M112.954 25.7586C115.778 25.7586 117.864 24.5364 117.864 22.1762C117.864 19.4156 115.63 18.9309 113.733 18.6148C112.364 18.362 111.141 18.2566 111.141 17.498C111.141 16.8236 111.795 16.5075 112.638 16.5075C113.586 16.5075 114.239 16.8026 114.366 17.7719H117.527C117.358 15.6435 115.714 14.3159 112.659 14.3159C110.109 14.3159 108.002 15.496 108.002 17.7719C108.002 20.3007 110.004 20.8065 111.879 21.1226C113.312 21.3754 114.619 21.4808 114.619 22.4502C114.619 23.1456 113.965 23.5249 112.933 23.5249C111.795 23.5249 111.078 22.9981 110.952 21.9233H107.707C107.812 24.3046 109.793 25.7586 112.954 25.7586Z" fill="white"/>
<path d="M122.529 25.7379C124.026 25.7379 124.974 25.1478 125.754 24.0942H125.817V25.4218H129.104V14.6323H125.669V20.6593C125.669 21.9447 124.953 22.8298 123.773 22.8298C122.677 22.8298 122.15 22.1765 122.15 20.9964V14.6323H118.736V21.7129C118.736 24.1153 120.043 25.7379 122.529 25.7379Z" fill="white"/>
<path d="M130.599 25.4215H134.034V19.3735C134.034 18.088 134.666 17.1819 135.74 17.1819C136.773 17.1819 137.258 17.8562 137.258 19.0152V25.4215H140.693V19.3735C140.693 18.088 141.304 17.1819 142.4 17.1819C143.432 17.1819 143.917 17.8562 143.917 19.0152V25.4215H147.352V18.4041C147.352 15.9807 146.13 14.3159 143.685 14.3159C142.294 14.3159 141.135 14.906 140.292 16.2125H140.25C139.702 15.0535 138.628 14.3159 137.216 14.3159C135.656 14.3159 134.624 15.0535 133.949 16.1704H133.886V14.632H130.599V25.4215Z" fill="white"/>
<path d="M22.8118 1.73589L19.3584 0.810547L16.4482 11.6716L13.8208 1.86617L10.3673 2.79151L13.2061 13.3856L6.13546 6.31502L3.60739 8.84309L11.363 16.5987L1.70463 14.0108L0.779297 17.4641L11.3322 20.2918C11.2114 19.7707 11.1475 19.2277 11.1475 18.6698C11.1475 14.7207 14.3489 11.5193 18.298 11.5193C22.2471 11.5193 25.4484 14.7207 25.4484 18.6698C25.4484 19.2241 25.3853 19.7637 25.266 20.2818L34.8566 22.8516L35.7819 19.3982L25.187 16.5593L34.846 13.9712L33.9206 10.5178L23.3262 13.3565L30.3968 6.28599L27.8687 3.75792L20.2207 11.4059L22.8118 1.73589Z" fill="white"/>
<path d="M25.2559 20.3218C24.9598 21.5735 24.3347 22.698 23.4771 23.599L30.4251 30.5471L32.9531 28.019L25.2559 20.3218Z" fill="white"/>
<path d="M23.407 23.6719C22.539 24.5584 21.4421 25.22 20.2119 25.561L22.7402 34.9965L26.1935 34.0711L23.407 23.6719Z" fill="white"/>
<path d="M20.083 25.5955C19.5123 25.7422 18.9141 25.8202 18.2976 25.8202C17.6371 25.8202 16.9976 25.7306 16.3904 25.563L13.8599 35.0071L17.3132 35.9324L20.083 25.5955Z" fill="white"/>
<path d="M16.2683 25.5284C15.0569 25.1705 13.9795 24.5004 13.1292 23.6113L6.16406 30.5764L8.69213 33.1045L16.2683 25.5284Z" fill="white"/>
<path d="M13.0711 23.5497C12.2353 22.6549 11.6266 21.5454 11.3368 20.313L1.71484 22.8912L2.64018 26.3446L13.0711 23.5497Z" fill="white"/>
</g>
<defs>
<clipPath id="clip0_284_167">
<rect width="147.512" height="36" fill="white" transform="translate(0.5)"/>
</clipPath>
</defs>
</svg>
