<svg width="156" height="36" viewBox="0 0 156 36" fill="none" xmlns="http://www.w3.org/2000/svg">
<g clip-path="url(#clip0_284_153)">
<path d="M44.6318 26.1H54.8493V23.1906H47.7475V9.60547H44.6318V26.1Z" fill="white"/>
<path d="M60.99 26.4434C62.2272 26.4434 63.3154 26.1685 64.2546 25.6187C65.2015 25.0612 65.9384 24.2938 66.4654 23.3164C66.9999 22.3313 67.2672 21.1973 67.2672 19.9144C67.2672 18.6391 67.0037 17.5127 66.4768 16.5353C65.9498 15.5502 65.2129 14.7789 64.266 14.2214C63.3268 13.664 62.2348 13.3853 60.99 13.3853C59.7682 13.3853 58.6877 13.6602 57.7484 14.21C56.8092 14.7598 56.0722 15.5273 55.5376 16.5124C55.0031 17.4898 54.7358 18.6238 54.7358 19.9144C54.7358 21.1896 54.9955 22.3198 55.5148 23.3049C56.0417 24.2824 56.7748 25.0498 57.714 25.6073C58.6534 26.1647 59.7453 26.4434 60.99 26.4434ZM60.99 23.534C60.0202 23.534 59.2834 23.2095 58.7794 22.5604C58.2829 21.9037 58.0348 21.0217 58.0348 19.9144C58.0348 18.8376 58.2715 17.9671 58.745 17.3027C59.226 16.6307 59.9744 16.2947 60.99 16.2947C61.9752 16.2947 62.7159 16.6231 63.2122 17.2798C63.7162 17.9366 63.9682 18.8147 63.9682 19.9144C63.9682 20.9759 63.7201 21.8463 63.2236 22.526C62.7349 23.198 61.9904 23.534 60.99 23.534Z" fill="white"/>
<path d="M73.4279 26.4434C74.0083 26.4434 74.5428 26.3747 75.0316 26.2373C75.528 26.0998 75.9785 25.9051 76.3832 25.6531V26.9016C76.3985 27.3598 76.2801 27.7416 76.0281 28.0471C75.7838 28.3602 75.4554 28.5931 75.0431 28.7458C74.6307 28.9062 74.1916 28.9864 73.7258 28.9864C73.2905 28.9864 72.8858 28.8909 72.5116 28.7C72.1451 28.5091 71.8625 28.2304 71.6639 27.8638L68.7774 29.2613C69.2508 30.0631 69.9267 30.7084 70.8049 31.1971C71.6831 31.6934 72.6491 31.9416 73.7029 31.9416C74.6116 31.9416 75.4554 31.8194 76.2343 31.5751C77.0133 31.3384 77.67 30.9757 78.2045 30.4869C78.7467 29.9982 79.1171 29.3758 79.3156 28.6198C79.3843 28.3525 79.4301 28.0814 79.4531 27.8065C79.4836 27.5393 79.4989 27.2529 79.4989 26.9474V13.7289H76.7727V14.4162C76.3526 14.0878 75.8754 13.8358 75.3409 13.6602C74.8139 13.4769 74.2298 13.3853 73.5883 13.3853C72.4047 13.3853 71.3738 13.6679 70.4956 14.2329C69.6174 14.798 68.9339 15.5731 68.4452 16.5582C67.9641 17.5356 67.7236 18.6544 67.7236 19.9144C67.7236 21.1514 67.9603 22.2625 68.4338 23.2476C68.9149 24.2327 69.583 25.0116 70.4383 25.5844C71.2936 26.1571 72.2901 26.4434 73.4279 26.4434ZM73.9319 23.6714C73.26 23.6714 72.7102 23.5034 72.2825 23.1674C71.8549 22.8315 71.5379 22.3809 71.3318 21.8158C71.1256 21.2431 71.0225 20.6093 71.0225 19.9144C71.0225 19.2271 71.1294 18.6009 71.3433 18.0358C71.5571 17.4631 71.8854 17.0087 72.3283 16.6727C72.7788 16.3291 73.3516 16.1573 74.0465 16.1573C75.024 16.1573 75.7227 16.5047 76.1427 17.1996C76.5627 17.8869 76.7727 18.7918 76.7727 19.9144C76.7727 21.0369 76.5588 21.9456 76.1312 22.6405C75.7112 23.3278 74.9782 23.6714 73.9319 23.6714Z" fill="white"/>
<path d="M86.8987 26.4434C88.1359 26.4434 89.2241 26.1685 90.1633 25.6187C91.11 25.0612 91.8471 24.2938 92.3736 23.3164C92.9082 22.3313 93.1755 21.1973 93.1755 19.9144C93.1755 18.6391 92.9127 17.5127 92.3853 16.5353C91.8588 15.5502 91.1217 14.7789 90.1747 14.2214C89.2355 13.664 88.1434 13.3853 86.8987 13.3853C85.6769 13.3853 84.5963 13.6602 83.6571 14.21C82.7179 14.7598 81.9809 15.5273 81.4463 16.5124C80.9118 17.4898 80.6445 18.6238 80.6445 19.9144C80.6445 21.1896 80.9042 22.3198 81.4235 23.3049C81.9503 24.2824 82.6835 25.0498 83.6227 25.6073C84.5621 26.1647 85.654 26.4434 86.8987 26.4434ZM86.8987 23.534C85.9289 23.534 85.192 23.2095 84.688 22.5604C84.1916 21.9037 83.9435 21.0217 83.9435 19.9144C83.9435 18.8376 84.1802 17.9671 84.6537 17.3027C85.1347 16.6307 85.8831 16.2947 86.8987 16.2947C87.8839 16.2947 88.6246 16.6231 89.1209 17.2798C89.6249 17.9366 89.8769 18.8147 89.8769 19.9144C89.8769 20.9759 89.6287 21.8463 89.1323 22.526C88.6436 23.198 87.8991 23.534 86.8987 23.534Z" fill="white"/>
<path d="M94.5493 12.0108H97.6651V9.26172H94.5493V12.0108ZM94.5493 26.0999H97.6651V13.729H94.5493V26.0999Z" fill="white"/>
<path d="M99.7017 31.598H102.84V25.6531C103.245 25.9051 103.691 26.0998 104.18 26.2373C104.677 26.3747 105.215 26.4434 105.796 26.4434C106.933 26.4434 107.93 26.1571 108.785 25.5844C109.64 25.0116 110.305 24.2327 110.778 23.2476C111.259 22.2625 111.5 21.1514 111.5 19.9144C111.5 18.6544 111.256 17.5356 110.767 16.5582C110.286 15.5731 109.606 14.798 108.728 14.2329C107.849 13.6679 106.819 13.3853 105.635 13.3853C104.994 13.3853 104.406 13.4769 103.871 13.6602C103.344 13.8358 102.871 14.0878 102.451 14.4162V13.7289H99.7017V31.598ZM105.292 23.6714C104.253 23.6714 103.52 23.3278 103.092 22.6405C102.664 21.9456 102.451 21.0369 102.451 19.9144C102.451 18.7918 102.661 17.8869 103.081 17.1996C103.509 16.5047 104.207 16.1573 105.177 16.1573C105.872 16.1573 106.441 16.3291 106.884 16.6727C107.335 17.0087 107.667 17.4631 107.88 18.0358C108.094 18.6009 108.201 19.2271 108.201 19.9144C108.201 20.6093 108.098 21.2431 107.892 21.8158C107.686 22.3809 107.369 22.8315 106.941 23.1674C106.514 23.5034 105.964 23.6714 105.292 23.6714Z" fill="white"/>
<path d="M117.145 26.4434C118.763 26.4434 120.031 26.0807 120.947 25.3553C121.863 24.6298 122.321 23.6333 122.321 22.3656C122.321 21.4034 122.023 20.6437 121.429 20.0862C120.84 19.5287 119.84 19.0667 118.427 18.7002C117.465 18.4558 116.747 18.2572 116.273 18.1045C115.808 17.9519 115.498 17.8029 115.345 17.6578C115.201 17.5127 115.129 17.3333 115.129 17.1194C115.129 16.7605 115.3 16.4857 115.643 16.2947C115.995 16.1038 116.457 16.0275 117.029 16.0656C118.243 16.1573 118.909 16.6766 119.023 17.6234L122.207 17.0507C122.047 15.9282 121.497 15.0386 120.557 14.3818C119.619 13.7174 118.42 13.3853 116.961 13.3853C115.464 13.3853 114.269 13.7365 113.375 14.4391C112.483 15.1416 112.035 16.0885 112.035 17.2798C112.035 18.2267 112.345 18.9751 112.963 19.5249C113.581 20.0671 114.647 20.5329 116.159 20.9224C117.053 21.1591 117.709 21.35 118.129 21.4951C118.557 21.6401 118.832 21.7891 118.954 21.9418C119.076 22.0869 119.137 22.2817 119.137 22.526C119.137 22.9154 118.984 23.2209 118.679 23.4424C118.374 23.6561 117.938 23.7631 117.373 23.7631C116.686 23.7631 116.117 23.5989 115.667 23.2705C115.224 22.9422 114.937 22.4879 114.807 21.9074L111.623 22.3885C111.829 23.6791 112.41 24.6794 113.365 25.3896C114.327 26.0922 115.587 26.4434 117.145 26.4434Z" fill="white"/>
<path d="M128.069 26.4665C128.962 26.4665 129.741 26.3176 130.406 26.0198C131.07 25.722 131.627 25.3249 132.078 24.8285V26.1H134.827V13.729H131.689V20.0061C131.689 20.7698 131.6 21.3883 131.425 21.8618C131.257 22.3276 131.04 22.6827 130.772 22.927C130.505 23.1638 130.219 23.3241 129.913 23.4081C129.608 23.4921 129.322 23.5341 129.054 23.5341C128.39 23.5341 127.874 23.3852 127.508 23.0874C127.149 22.7896 126.889 22.4192 126.729 21.9763C126.568 21.5334 126.473 21.0943 126.442 20.659C126.412 20.2161 126.397 19.8534 126.397 19.5708V13.729H123.235V20.6705C123.235 20.8766 123.25 21.205 123.281 21.6556C123.311 22.1061 123.4 22.6063 123.544 23.1561C123.689 23.6983 123.93 24.2214 124.266 24.7254C124.61 25.2294 125.087 25.6455 125.698 25.974C126.308 26.3023 127.099 26.4665 128.069 26.4665Z" fill="white"/>
<path d="M136.631 26.0999H139.77V18.6086C139.77 17.8985 139.964 17.3219 140.354 16.879C140.751 16.4284 141.274 16.2032 141.923 16.2032C142.603 16.2032 143.134 16.4323 143.515 16.8905C143.904 17.341 144.1 17.9748 144.1 18.7919V26.0999H147.215V18.6086C147.215 17.8985 147.41 17.3219 147.799 16.879C148.196 16.4284 148.719 16.2032 149.368 16.2032C150.049 16.2032 150.579 16.4323 150.96 16.8905C151.35 17.341 151.545 17.9748 151.545 18.7919V26.0999H154.66V17.9672C154.66 16.6155 154.297 15.5236 153.572 14.6912C152.855 13.8512 151.789 13.4312 150.376 13.4312C149.582 13.4312 148.853 13.603 148.188 13.9466C147.524 14.2903 146.994 14.7599 146.596 15.3555C146.276 14.7752 145.818 14.3094 145.222 13.9581C144.626 13.6068 143.885 13.4312 143 13.4312C142.251 13.4312 141.564 13.5801 140.938 13.8779C140.311 14.1681 139.792 14.569 139.38 15.0806V13.729H136.631V26.0999Z" fill="white"/>
<path d="M18.5 0C8.55887 0 0.5 8.05887 0.5 18C10.4411 18 18.5 9.94113 18.5 0Z" fill="#7D7D7D"/>
<path d="M18.4995 36C28.4406 36 36.4995 27.9411 36.4995 18C26.5584 18 18.4995 26.0589 18.4995 36Z" fill="#7D7D7D"/>
<path d="M18.4995 0C28.4406 0 36.4995 8.05887 36.4995 18C26.5584 18 18.4995 9.94113 18.4995 0Z" fill="white"/>
<path d="M18.4995 36C8.55838 36 0.499511 27.9411 0.499512 18C10.4406 18 18.4995 26.0589 18.4995 36Z" fill="white"/>
</g>
<defs>
<clipPath id="clip0_284_153">
<rect width="154.8" height="36" fill="white" transform="translate(0.5)"/>
</clipPath>
</defs>
</svg>
