<svg width="59" height="65" viewBox="0 0 59 65" fill="none" xmlns="http://www.w3.org/2000/svg">
<g clip-path="url(#clip0_171_773)">
<path d="M14.8667 35.2692C14.1043 35.2692 13.4093 35.2692 12.7366 35.2692C10.5841 35.2692 8.40925 35.2468 6.25678 35.2917C4.44064 35.3365 2.82629 36.6145 2.35544 38.3186C2.24333 38.767 2.22091 39.2379 2.22091 39.7087C2.19849 41.7042 2.22091 43.7222 2.22091 45.7177C2.22091 45.9195 2.22091 46.1213 2.19849 46.3231C2.13122 46.9957 1.68279 47.4441 1.09983 47.4217C0.516874 47.3993 0.0684438 46.9284 0.0460223 46.2558C0.00117925 45.5831 0.00117925 44.8881 0.00117925 44.193C0.0236008 42.2872 -0.0660853 40.3589 0.135708 38.4531C0.427188 35.7177 2.87113 33.4755 5.62898 33.184C6.23436 33.1168 6.81732 33.0944 7.51239 33.0495C7.35544 32.8701 7.22091 32.7356 7.1088 32.6011C5.22539 30.4262 4.48548 27.9374 5.22539 25.1571C5.9653 22.332 8.96979 20.6056 11.7725 21.2109C14.7321 21.8612 16.6828 24.5518 16.3689 27.5114C16.1447 29.619 15.472 31.5024 13.7456 33.0495C14.5527 33.0944 15.2702 33.1616 15.9877 33.184C16.0998 33.184 16.2344 33.0047 16.324 32.8926C18.2075 30.7177 20.629 29.6414 23.4765 29.5742C24.1267 29.5518 24.7545 29.5742 25.5393 29.5742C25.3823 29.4172 25.3375 29.35 25.2702 29.2827C23.2075 27.6011 22.2658 25.3365 21.7725 22.8029C21.3016 20.3813 21.5707 18.1168 23.0505 16.054C24.9339 13.4083 28.2075 12.2199 31.3689 13.0047C34.4406 13.767 36.8622 16.3903 37.1761 19.5966C37.5348 23.4083 36.5034 26.7715 33.4765 29.35C33.4317 29.3948 33.4092 29.4396 33.3644 29.5069C34.5079 29.5742 35.6066 29.5742 36.7052 29.7087C39.0146 30.0002 40.9205 31.054 42.4451 32.8029C42.7142 33.1168 42.9608 33.2289 43.342 33.184C43.8801 33.1168 44.4406 33.0944 45.0909 33.0495C43.6559 31.7939 42.9384 30.2468 42.6021 28.5204C41.9294 25.1571 43.6335 22.1302 46.6828 21.3231C50.7411 20.2468 54.4855 23.6997 53.8577 27.8926C53.5662 29.8657 52.8711 31.6145 51.324 33.0047C52.2209 33.1168 53.0281 33.1616 53.8128 33.341C56.8173 34.0361 58.8128 36.5024 58.8128 39.5966C58.8128 41.7939 58.8128 44.0136 58.8128 46.2109C58.8128 46.9733 58.342 47.4666 57.7142 47.4666C57.1088 47.4666 56.6828 46.9957 56.638 46.2558C56.638 46.0764 56.638 45.897 56.638 45.7177C56.638 43.8118 56.638 41.8836 56.638 39.9778C56.638 37.0405 54.9563 35.3365 52.0191 35.3141C49.5527 35.2917 47.064 35.3141 44.5976 35.3141C44.4182 35.3141 44.2388 35.3365 44.0146 35.3365C44.1492 36.0316 44.3734 36.7042 44.3734 37.3544C44.4182 40.3141 44.4182 43.2737 44.4182 46.2334C44.4182 46.9733 43.9922 47.4441 43.3644 47.4441C42.7366 47.4441 42.2658 46.9284 42.2658 46.1885C42.2658 43.5876 42.2658 40.9867 42.2658 38.3634C42.2658 34.9778 39.7097 32.1302 36.3465 31.8387C34.3958 31.6818 32.4227 31.7266 30.472 31.7266C27.8263 31.7266 25.1581 31.637 22.5348 31.8612C19.1492 32.1302 16.481 35.045 16.5707 38.4083C16.638 40.9867 16.5931 43.5652 16.5707 46.1661C16.5707 47.0854 15.898 47.6683 15.1806 47.3544C14.8666 47.2199 14.4631 46.8163 14.4631 46.5248C14.4631 43.2065 14.5079 39.8881 14.5752 36.5697C14.5752 36.1661 14.7321 35.7849 14.8667 35.2692ZM35.046 21.4352C35.1581 17.9374 33.0505 15.3589 30.2927 15.0002C27.2433 14.5966 24.4855 16.3903 23.9025 19.3724C23.3644 22.0181 24.0371 24.5293 25.6738 26.6594C27.6693 29.2379 31.2568 29.1706 33.2299 26.5473C34.4855 24.8657 34.9788 22.915 35.046 21.4352ZM44.5976 26.9733C44.62 28.3634 45.0684 29.7535 45.7859 30.6504C47.1088 32.332 49.2613 32.3096 50.5393 30.5831C51.2568 29.619 51.5258 28.5204 51.6604 27.3544C51.907 25.2692 50.4048 23.3634 48.3868 23.2737C46.2119 23.1616 44.5527 24.776 44.5976 26.9733ZM14.194 27.332C14.2388 25.0226 12.8487 23.4307 11.0101 23.2737C9.05947 23.1168 7.4227 24.3948 7.17607 26.3679C6.97427 27.9374 7.37786 29.4172 8.36441 30.6952C9.57517 32.2872 11.6828 32.332 12.9384 30.7625C13.8128 29.6639 14.1492 28.3634 14.194 27.332Z" fill="#00F0FF"/>
<path d="M38.0036 41.1215C38.0036 41.1439 38.0036 41.1663 38.0036 41.1888C37.8018 42.4219 38.183 43.3861 39.1919 44.126C39.7749 44.552 39.8646 45.1349 39.5731 45.7852C39.4386 46.0767 39.3713 46.3681 39.2592 46.6596C38.8108 47.8704 39.1247 48.8345 40.3579 49.2605C41.7256 49.7314 42.331 50.5385 42.1067 51.9959C42.0171 52.5341 42.0843 53.117 42.1067 53.6551C42.1292 54.2157 41.8601 54.5744 41.3668 54.821C41.0081 54.978 40.6493 55.2022 40.2682 55.3143C39.6852 55.4937 39.3041 55.8749 39.1919 56.4578C39.1247 56.839 39.035 57.3098 39.1695 57.6462C40.0215 60.0004 40.044 59.5744 38.3399 61.3009C36.748 62.9152 37.0619 62.9152 34.8646 62.0856C33.878 61.7045 32.8915 62.1305 32.4655 63.0722C31.4565 65.2695 31.748 64.978 29.461 64.978C29.035 64.978 28.609 64.9556 28.183 64.978C27.4431 65.0453 26.9946 64.7089 26.748 64.0363C26.6359 63.7672 26.5238 63.4982 26.3893 63.2515C25.8287 62.0184 24.9543 61.5923 23.7435 62.1753C22.4206 62.8031 21.4341 62.6237 20.5597 61.4578C20.2458 61.0318 19.8198 60.6955 19.4386 60.3143C19.0126 59.9107 18.9229 59.4399 19.1247 58.9242C19.2592 58.6103 19.3937 58.2964 19.5059 57.9825C19.9991 56.6372 19.6852 55.7403 18.3399 55.2471C17.0395 54.7762 16.4789 54.0363 16.6807 52.6462C16.7704 52.0856 16.7032 51.4802 16.6807 50.9197C16.6583 50.3367 16.9274 49.9556 17.4431 49.7314C17.757 49.5968 18.0485 49.4623 18.3624 49.3053C19.6628 48.7 19.9767 47.8928 19.4834 46.5475C19.461 46.5027 19.461 46.4578 19.4386 46.413C18.8108 45.3143 18.9902 44.3726 20.044 43.6327C20.6718 43.1843 20.8511 42.6013 20.7839 41.839C20.7166 41.0991 20.7615 40.3592 20.7839 39.6417C20.8063 38.9018 21.2099 38.4309 21.8377 38.4309C22.4879 38.4085 22.9363 38.9018 22.9588 39.6641C22.9812 40.3367 22.9363 41.0094 22.9812 41.6596C23.0036 41.8614 23.183 42.1305 23.3624 42.2201C24.0126 42.5116 24.6628 42.8255 25.4476 42.3995C25.8736 42.1753 26.1426 41.9062 26.322 41.4802C27.3085 39.2829 27.0171 39.5744 29.3041 39.5744C29.7301 39.5744 30.1561 39.5968 30.5821 39.5744C31.322 39.5071 31.748 39.8435 32.0171 40.5161C32.1292 40.8076 32.2861 41.0767 32.3982 41.3681C32.9363 42.8928 34.5731 42.8255 35.6493 42.1529C35.7615 42.0856 35.8063 41.8614 35.8063 41.7045C35.8287 41.0318 35.8063 40.3592 35.8287 39.7089C35.8511 38.9466 36.2771 38.4533 36.9274 38.4533C37.5552 38.4533 37.9588 38.9242 38.0036 39.6641C38.026 40.1349 38.0036 40.6282 38.0036 41.1215ZM37.3758 45.5161C37.3982 45.0901 36.2771 44.2829 35.8511 44.4175C35.2009 44.5968 34.461 45.0453 33.9005 44.8883C32.4655 44.4847 30.8511 44.126 30.4476 42.2874C30.313 41.6372 29.8198 41.7493 29.3489 41.7269C28.878 41.7045 28.5193 41.7493 28.3175 42.2874C28.1157 42.848 27.8915 43.5654 27.4431 43.8121C26.1202 44.552 24.7301 45.4937 23.1157 44.4847C22.6 44.1708 22.3085 44.4399 21.9946 44.7762C21.6807 45.1349 21.2547 45.3592 21.5686 45.987C21.8377 46.5475 22.1516 47.2874 21.9946 47.8031C21.5686 49.2381 21.1875 50.83 19.3713 51.2336C18.7211 51.3681 18.878 51.9062 18.8556 52.3547C18.8332 52.8031 18.878 53.1394 19.3937 53.3412C19.9543 53.5654 20.7166 53.8121 20.9633 54.2605C21.6807 55.561 22.6224 56.9511 21.6359 58.543C21.2772 59.126 21.6359 59.395 21.9946 59.7762C22.331 60.1349 22.6224 60.3816 23.183 60.0901C24.0798 59.6192 24.9543 59.5744 25.9857 60.0004C27.2189 60.4937 28.0933 61.1439 28.4969 62.4219C28.5641 62.6013 28.878 62.7807 29.1247 62.848C30.0215 63.0722 30.4924 62.6462 30.7839 61.8166C30.9408 61.3906 31.2099 60.8524 31.5911 60.6506C32.9812 59.978 34.4162 59.1036 36.0305 60.1798C36.1426 60.2471 36.3444 60.2695 36.4565 60.2022C37.2413 59.821 37.5103 59.1036 37.174 58.274C36.8825 57.5565 36.7704 56.9062 37.0619 56.0991C37.5776 54.7538 38.2054 53.6327 39.7076 53.2067C40.3579 53.0273 39.9543 52.3995 40.044 51.9959C40.1112 51.6596 40.0215 51.3906 39.6404 51.2784C38.2727 50.9197 37.5328 49.978 37.1964 48.6551C37.1516 48.4758 37.0171 48.3412 36.9946 48.1619C36.9722 47.7358 36.905 47.2874 36.9946 46.8838C36.9722 46.4354 37.1964 45.987 37.3758 45.5161Z" fill="#00F0FF"/>
<path d="M54.1261 9.88803C54.0364 10.0226 53.9243 10.3589 53.7 10.6055C53.2068 11.1661 52.6238 11.6818 52.1305 12.2423C51.9736 12.4217 51.8839 12.7131 51.9063 12.9374C51.9736 13.6548 52.1081 14.3499 52.1978 15.045C52.2651 15.5383 52.2651 16.0315 51.8166 16.3903C51.3234 16.749 50.8749 16.5921 50.3817 16.3454C49.6193 15.9643 48.857 15.3589 48.0947 15.3365C47.3548 15.3365 46.6148 15.9643 45.8749 16.323C45.4041 16.5696 44.9332 16.749 44.44 16.3903C43.9467 16.0091 43.9243 15.5158 44.0588 14.9553C44.1485 14.5966 44.1261 14.193 44.2382 13.8342C44.5521 12.8477 44.2382 12.1302 43.4534 11.5248C43.1171 11.2782 42.8704 10.9194 42.5565 10.6279C42.1978 10.2692 41.9063 9.84319 42.1754 9.39476C42.3996 9.05844 42.8256 8.74453 43.2292 8.63243C43.9467 8.40821 44.709 8.36337 45.4489 8.20642C45.6507 8.16157 45.8749 7.9822 45.987 7.80283C46.3682 7.13018 46.7045 6.43512 47.0857 5.74005C47.6014 4.79835 48.5879 4.77592 49.1261 5.71763C49.5072 6.39027 49.8435 7.10776 50.2247 7.78041C50.3368 7.95978 50.5835 8.13915 50.8077 8.184C51.5476 8.34095 52.2875 8.45305 53.0274 8.58758C53.7449 8.69969 54.1261 9.08086 54.1261 9.88803ZM46.4803 13.5876C47.6014 12.758 48.6776 12.8253 49.7987 13.5876C49.3503 12.2423 49.709 11.2557 50.8077 10.4261C49.4175 10.4261 48.5655 9.77592 48.1171 8.47548C47.6911 9.79835 46.8166 10.4261 45.4265 10.4261C46.5476 11.2557 46.8839 12.2647 46.4803 13.5876Z" fill="#00F0FF"/>
<path d="M10.6729 5.2019C11.0765 5.56065 11.4353 5.78486 11.6595 6.09877C12.0631 6.72657 12.3321 7.44406 12.7357 8.09428C12.8702 8.3185 13.1617 8.52029 13.4083 8.58755C14.1258 8.76693 14.8657 8.78935 15.5608 9.01356C15.9644 9.14809 16.4577 9.43957 16.5922 9.79832C16.7043 10.0898 16.4801 10.6503 16.2335 10.9642C15.785 11.5472 15.2021 12.018 14.7312 12.5786C14.5518 12.8028 14.4397 13.1615 14.4622 13.453C14.507 14.1705 14.7312 14.8656 14.7312 15.5606C14.7312 15.9642 14.5967 16.5024 14.3276 16.7266C14.0586 16.9284 13.498 16.9284 13.1169 16.7938C12.4218 16.5696 11.8164 16.1212 11.1213 15.8746C10.8299 15.7624 10.4487 15.7624 10.1572 15.8746C9.507 16.1436 8.8792 16.5024 8.25139 16.7938C7.22 17.2647 6.45767 16.7266 6.56978 15.6055C6.63704 14.8432 6.81642 14.1032 6.88368 13.3633C6.9061 13.1167 6.81642 12.8028 6.65947 12.6234C6.14377 12.0405 5.58323 11.5024 5.06754 10.9867C4.68637 10.6055 4.48458 10.1346 4.73121 9.70863C4.93301 9.39473 5.38144 9.12567 5.76261 9.01356C6.45767 8.81177 7.19758 8.76693 7.91507 8.58755C8.16171 8.52029 8.45319 8.29607 8.58772 8.07186C8.96888 7.44406 9.26036 6.72657 9.66395 6.09877C9.88817 5.76244 10.2469 5.56065 10.6729 5.2019ZM13.4083 10.897C12.7357 10.6952 12.0855 10.6728 11.6595 10.3589C11.211 10.0225 10.9868 9.43957 10.6505 8.96872C10.3142 9.46199 10.0675 10.0674 9.64153 10.3813C9.21552 10.6952 8.58772 10.7176 8.07202 10.8521C8.45319 11.3454 8.92404 11.7714 9.10341 12.2647C9.26036 12.758 9.10341 13.3633 9.05857 14.0808C10.1348 13.1615 11.1886 13.2288 12.3097 13.9687C11.9061 12.6459 12.2424 11.6369 13.4083 10.897Z" fill="#00F0FF"/>
<path d="M25.2683 10.3143C25.3804 9.57442 25.5374 8.78967 25.6047 7.98249C25.6271 7.71343 25.5374 7.37711 25.358 7.17532C24.8647 6.59236 24.2594 6.12151 23.8109 5.51612C23.5643 5.20222 23.3849 4.68653 23.497 4.32778C23.5867 4.01388 24.0576 3.7224 24.4163 3.61029C25.1338 3.4085 25.8961 3.36366 26.636 3.18429C26.9051 3.11702 27.1966 2.91523 27.3311 2.66859C27.7347 2.01837 28.0486 1.3233 28.4073 0.673075C28.923 -0.268629 29.9096 -0.268629 30.4477 0.673075C30.8065 1.30088 31.1204 1.92868 31.4343 2.55648C31.6136 2.96007 31.8827 3.16186 32.3311 3.20671C33.0486 3.29639 33.7885 3.43092 34.4836 3.58787C35.4701 3.81209 35.7392 4.70895 35.0665 5.44886C34.5508 6.03182 33.9679 6.54751 33.4522 7.13047C33.2728 7.33227 33.1831 7.66859 33.2056 7.93765C33.2728 8.67756 33.4746 9.39505 33.497 10.1125C33.497 10.5161 33.3625 11.0542 33.071 11.256C32.802 11.4578 32.219 11.4354 31.8603 11.3009C31.0082 10.987 30.2011 10.2695 29.3715 10.2695C28.5643 10.2695 27.7795 10.9646 26.9724 11.3233C26.0082 11.8166 25.2235 11.3233 25.2683 10.3143ZM29.3042 3.4085C28.9679 4.84348 28.0486 5.3816 26.7033 5.42644C27.8692 6.21119 28.1159 7.28742 27.7795 8.61029C28.9006 7.64617 29.9544 7.87038 31.0755 8.56545C30.5822 7.22016 31.0307 6.23361 32.1293 5.47128C30.4477 5.02285 30.4477 5.02285 29.3042 3.4085Z" fill="#00F0FF"/>
<path d="M29.396 58.7446C25.8309 58.7446 22.961 55.8746 22.9161 52.3096C22.8937 48.7446 25.7861 45.8074 29.3735 45.8074C32.9386 45.8074 35.8085 48.6773 35.8534 52.2423C35.8982 55.8074 32.9834 58.7446 29.396 58.7446ZM33.6785 52.2872C33.6785 49.8881 31.7951 48.0047 29.4184 47.9823C26.9969 47.9823 25.091 49.8657 25.091 52.2872C25.091 54.6863 26.9744 56.5697 29.3511 56.5921C31.7951 56.5921 33.6785 54.7087 33.6785 52.2872Z" fill="#00F0FF"/>
<path d="M28.7888 51.9959C29.3045 51.4354 29.7753 50.8972 30.291 50.3591C30.8292 49.7762 31.4345 49.7313 31.9278 50.2022C32.3762 50.6282 32.3762 51.256 31.883 51.8165C31.1655 52.6237 30.448 53.4084 29.7305 54.1708C29.1475 54.7762 28.6094 54.7986 27.9816 54.238C27.6229 53.9017 27.2641 53.5654 26.9278 53.2291C26.4121 52.7134 26.3673 52.0856 26.8157 51.6371C27.2417 51.1887 27.8695 51.2111 28.43 51.682C28.5422 51.7717 28.6543 51.8838 28.7888 51.9959Z" fill="#00F0FF"/>
</g>
<defs>
<clipPath id="clip0_171_773">
<rect width="58.7892" height="65" fill="white"/>
</clipPath>
</defs>
</svg>
