<svg width="51" height="50" viewBox="0 0 51 50" fill="none" xmlns="http://www.w3.org/2000/svg">
<g clip-path="url(#clip0_284_248)">
<path d="M23 9C21.35 9 20 10.35 20 12V18C20 18.55 20.45 19 21 19C21.55 19 22 18.55 22 18V16H24V18C24 18.55 24.45 19 25 19C25.55 19 26 18.55 26 18V12C26 10.35 24.65 9 23 9ZM22 14V12C22 11.45 22.45 11 23 11C23.55 11 24 11.45 24 12V14H22Z" fill="#01EAF9"/>
<path d="M31 10C31 9.45 30.55 9 30 9H28C27.45 9 27 9.45 27 10C27 10.55 27.45 11 28 11V17C27.45 17 27 17.45 27 18C27 18.55 27.45 19 28 19H30C30.55 19 31 18.55 31 18C31 17.45 30.55 17 30 17V11C30.55 11 31 10.55 31 10Z" fill="#01EAF9"/>
<path d="M47.5 26C49.15 26 50.5 24.65 50.5 23C50.5 21.35 49.15 20 47.5 20C47.06 20 46.65 20.1 46.28 20.27L43.05 18.17C42.88 18.06 42.69 18 42.5 18H34.5V15H42.68C43.09 16.16 44.19 17 45.5 17C47.15 17 48.5 15.65 48.5 14C48.5 12.35 47.15 11 45.5 11C44.2 11 43.1 11.84 42.68 13H34.5V10H42.5C42.69 10 42.88 9.94 43.04 9.84L46.27 7.74C46.65 7.9 47.06 8 47.5 8C49.15 8 50.5 6.65 50.5 5C50.5 3.35 49.15 2 47.5 2C45.85 2 44.5 3.35 44.5 5C44.5 5.47 44.62 5.91 44.81 6.3L42.2 8H34.5V6C34.5 5.45 34.05 5 33.5 5H30.5V1C30.5 0.45 30.05 0 29.5 0C28.95 0 28.5 0.45 28.5 1V5H26.5V3C26.5 2.45 26.05 2 25.5 2C24.95 2 24.5 2.45 24.5 3V5H22.5V1C22.5 0.45 22.05 0 21.5 0C20.95 0 20.5 0.45 20.5 1V5H17.5C16.95 5 16.5 5.45 16.5 6V8H8.8L6.19 6.3C6.38 5.91 6.5 5.47 6.5 5C6.5 3.35 5.15 2 3.5 2C1.85 2 0.5 3.35 0.5 5C0.5 6.65 1.85 8 3.5 8C3.94 8 4.35 7.9 4.72 7.73L7.95 9.83C8.12 9.94 8.31 10 8.5 10H16.5V13H8.32C7.9 11.84 6.8 11 5.5 11C3.85 11 2.5 12.35 2.5 14C2.5 15.65 3.85 17 5.5 17C6.8 17 7.9 16.16 8.32 15H16.5V18H8.5C8.31 18 8.12 18.06 7.96 18.16L4.73 20.26C4.35 20.1 3.94 20 3.5 20C1.85 20 0.5 21.35 0.5 23C0.5 24.65 1.85 26 3.5 26C5.15 26 6.5 24.65 6.5 23C6.5 22.53 6.38 22.09 6.19 21.7L8.8 20H16.5V22C16.5 22.55 16.95 23 17.5 23H19.5V26H7.5C3.64 26 0.5 29.14 0.5 33C0.5 36.29 2.8 39.12 5.95 39.83C7.16 43.49 10.58 46 14.5 46C15.43 46 16.33 45.86 17.21 45.58C19.05 48.33 22.15 50 25.5 50C28.85 50 31.95 48.33 33.79 45.58C34.67 45.86 35.57 46 36.5 46C40.42 46 43.84 43.49 45.05 39.83C48.2 39.12 50.5 36.29 50.5 33C50.5 29.14 47.36 26 43.5 26H40.5C39.95 26 39.5 26.45 39.5 27C39.5 27.55 39.95 28 40.5 28H43.5C46.26 28 48.5 30.24 48.5 33C48.5 35.51 46.62 37.65 44.13 37.96C43.72 38.01 43.39 38.31 43.28 38.71C42.51 41.82 39.72 44 36.5 44C35.55 44 34.63 43.81 33.76 43.44C33.29 43.24 32.74 43.43 32.49 43.88C31.09 46.42 28.41 48 25.5 48C22.59 48 19.91 46.42 18.5 43.88C18.25 43.43 17.7 43.24 17.23 43.44C16.37 43.81 15.45 44 14.5 44C11.28 44 8.49 41.82 7.71 38.71C7.61 38.31 7.27 38.01 6.87 37.96C4.38 37.65 2.5 35.51 2.5 33C2.5 30.24 4.74 28 7.5 28H19.5V32.52L17.08 34.46C16.62 34.17 16.08 34 15.5 34C13.85 34 12.5 35.35 12.5 37C12.5 38.65 13.85 40 15.5 40C17.15 40 18.5 38.65 18.5 37C18.5 36.66 18.43 36.33 18.32 36.02L21.12 33.78C21.36 33.59 21.5 33.3 21.5 33V28H24.5V32.18C23.34 32.59 22.5 33.69 22.5 35C22.5 36.65 23.85 38 25.5 38C27.15 38 28.5 36.65 28.5 35C28.5 33.7 27.66 32.6 26.5 32.18V28H29.5V33C29.5 33.3 29.64 33.59 29.88 33.78L32.68 36.02C32.57 36.33 32.5 36.66 32.5 37C32.5 38.65 33.85 40 35.5 40C37.15 40 38.5 38.65 38.5 37C38.5 35.35 37.15 34 35.5 34C34.92 34 34.38 34.17 33.92 34.46L31.5 32.52V28H36.5C37.05 28 37.5 27.55 37.5 27C37.5 26.45 37.05 26 36.5 26H31.5V23H33.5C34.05 23 34.5 22.55 34.5 22V20H42.2L44.81 21.7C44.62 22.09 44.5 22.53 44.5 23C44.5 24.65 45.85 26 47.5 26ZM45.5 13C46.05 13 46.5 13.45 46.5 14C46.5 14.55 46.05 15 45.5 15C44.95 15 44.5 14.55 44.5 14C44.5 13.45 44.95 13 45.5 13ZM47.5 4C48.05 4 48.5 4.45 48.5 5C48.5 5.55 48.05 6 47.5 6C46.95 6 46.5 5.55 46.5 5C46.5 4.45 46.95 4 47.5 4ZM2.5 5C2.5 4.45 2.95 4 3.5 4C4.05 4 4.5 4.45 4.5 5C4.5 5.55 4.05 6 3.5 6C2.95 6 2.5 5.55 2.5 5ZM5.5 15C4.95 15 4.5 14.55 4.5 14C4.5 13.45 4.95 13 5.5 13C6.05 13 6.5 13.45 6.5 14C6.5 14.55 6.05 15 5.5 15ZM3.5 24C2.95 24 2.5 23.55 2.5 23C2.5 22.45 2.95 22 3.5 22C4.05 22 4.5 22.45 4.5 23C4.5 23.55 4.05 24 3.5 24ZM15.5 38C14.95 38 14.5 37.55 14.5 37C14.5 36.45 14.95 36 15.5 36C16.05 36 16.5 36.45 16.5 37C16.5 37.55 16.05 38 15.5 38ZM25.5 36C24.95 36 24.5 35.55 24.5 35C24.5 34.45 24.95 34 25.5 34C26.05 34 26.5 34.45 26.5 35C26.5 35.55 26.05 36 25.5 36ZM36.5 37C36.5 37.55 36.05 38 35.5 38C34.95 38 34.5 37.55 34.5 37C34.5 36.45 34.95 36 35.5 36C36.05 36 36.5 36.45 36.5 37ZM21.5 23H24.5V26H21.5V23ZM29.5 26H26.5V23H29.5V26ZM32.5 21H18.5V7H32.5V21ZM48.5 23C48.5 23.55 48.05 24 47.5 24C46.95 24 46.5 23.55 46.5 23C46.5 22.45 46.95 22 47.5 22C48.05 22 48.5 22.45 48.5 23Z" fill="#01EAF9"/>
</g>
<defs>
<clipPath id="clip0_284_248">
<rect width="50" height="50" fill="white" transform="translate(0.5)"/>
</clipPath>
</defs>
</svg>
