<svg width="68" height="65" viewBox="0 0 68 65" fill="none" xmlns="http://www.w3.org/2000/svg">
<g clip-path="url(#clip0_284_545)">
<path d="M34.0504 21.4031C43.17 21.4961 51.0333 28.1962 52.3361 37.1064C52.9875 41.6661 52.1499 45.9467 49.6839 49.8319C49.428 50.2273 49.4048 50.5065 49.6607 50.9253C51.359 53.7868 53.0107 56.6948 54.6857 59.5795C55.0114 60.1146 55.2673 60.6497 54.8253 61.2545C54.4066 61.7896 53.8715 61.7664 53.2666 61.65C51.7312 61.3709 50.1958 61.1382 48.6603 60.9289C48.3812 60.8823 47.9624 61.0684 47.7763 61.2778C46.9155 62.2782 46.1013 63.3018 45.2638 64.3254C44.4728 65.3025 43.6353 65.2327 42.9839 64.1393C41.8439 62.1851 40.7273 60.2542 39.6106 58.2767C39.3779 57.8812 39.1686 57.7649 38.7033 57.8812C35.6557 58.6722 32.5848 58.6722 29.5372 57.8812C29.0952 57.7649 28.8625 57.858 28.6299 58.2767C27.5365 60.2309 26.4198 62.1386 25.3031 64.0695C24.6052 65.2792 23.791 65.3258 22.9069 64.2324C22.1159 63.2553 21.325 62.2316 20.4875 61.2778C20.3013 61.0684 19.8826 60.8823 19.6034 60.9289C17.9982 61.1382 16.393 61.4174 14.7877 61.6966C14.2527 61.7896 13.7874 61.7431 13.4384 61.2778C13.0895 60.7893 13.1593 60.3007 13.4384 59.7889C15.1367 56.8576 16.8117 53.9263 18.5333 51.0183C18.8124 50.553 18.7892 50.2739 18.51 49.8086C11.6703 38.9442 17.7888 24.5205 30.3514 21.8916C31.5147 21.6357 32.7942 21.5659 34.0504 21.4031ZM50.1958 39.9679C50.1958 31.0344 42.9839 23.8458 34.0504 23.8458C25.117 23.8458 17.9284 31.081 17.9284 40.0144C17.9284 48.9246 25.1635 56.1597 34.097 56.1364C43.0071 56.1364 50.1958 48.9013 50.1958 39.9679ZM23.8608 61.7896C24.8146 60.1146 25.7219 58.5559 26.6524 56.9274C24.2097 55.834 22.1392 54.3218 20.3246 52.3909C19.0451 54.6243 17.7888 56.7878 16.486 59.0445C17.6958 58.8583 18.7659 58.742 19.8128 58.5094C20.6736 58.3233 21.2784 58.5326 21.8135 59.2538C22.4184 60.0913 23.1163 60.8823 23.8608 61.7896ZM41.4484 56.9274C42.4023 58.5792 43.3096 60.1379 44.2634 61.7664C45.0311 60.8358 45.7523 59.9983 46.4037 59.1142C46.8923 58.4628 47.4739 58.3233 48.2183 58.4628C49.2885 58.6722 50.3819 58.8118 51.6149 59.0212C50.3121 56.7413 49.0558 54.5777 47.7763 52.3444C45.9617 54.3451 43.8912 55.834 41.4484 56.9274Z" fill="#00F0FF"/>
<path d="M34.0518 0.000244141C34.517 0.465527 34.9591 0.744696 35.1684 1.14019C35.7966 2.32666 36.3549 3.53639 36.9365 4.74613C37.1226 5.16488 37.3553 5.39752 37.8671 5.44405C39.2164 5.56037 40.5657 5.81628 41.915 5.97913C42.4734 6.04892 42.9619 6.28156 43.0084 6.8399C43.055 7.25865 42.8921 7.81699 42.613 8.09616C41.6824 9.09652 40.6588 10.0271 39.6584 10.9577C39.3327 11.2601 39.1931 11.516 39.2862 12.0045C39.6351 13.3306 39.8213 14.6566 40.0539 15.9827C40.147 16.5178 40.147 17.0296 39.6351 17.4018C39.1233 17.774 38.6581 17.6345 38.1695 17.3553C36.983 16.7039 35.75 16.0758 34.5636 15.4244C34.2146 15.215 33.9354 15.215 33.5865 15.4244C32.4 16.099 31.1903 16.7039 29.9805 17.3786C29.492 17.6577 29.0034 17.774 28.5149 17.4018C28.0263 17.0296 27.9798 16.541 28.0961 15.9827C28.3753 14.6101 28.6312 13.2608 28.8406 11.8882C28.8871 11.6323 28.7475 11.2833 28.5614 11.0972C27.5843 10.1201 26.5607 9.16631 25.5603 8.21248C25.1416 7.81699 24.8857 7.39824 25.0951 6.81664C25.3044 6.2583 25.7697 6.07218 26.3281 6.00239C27.7006 5.83954 29.0965 5.65343 30.4458 5.42079C30.6785 5.37426 30.9809 5.11835 31.0972 4.88571C31.7253 3.65271 32.2837 2.37319 32.9583 1.16345C33.1445 0.744696 33.5865 0.465527 34.0518 0.000244141ZM30.7482 14.3077C31.609 13.8424 32.3302 13.5167 33.0281 13.0747C33.7493 12.6327 34.4007 12.6327 35.0986 13.0747C35.7966 13.4934 36.541 13.8657 37.3553 14.3077C37.1691 13.2841 37.0296 12.4 36.8435 11.5393C36.7039 10.9111 36.8667 10.4458 37.332 9.98056C37.9601 9.32916 38.5417 8.63124 39.1233 7.97984C38.3789 7.86352 37.4716 7.70067 36.5875 7.60762C35.9129 7.53782 35.5174 7.18886 35.2382 6.58399C34.8893 5.79301 34.4938 5.0253 34.0518 4.09473C33.633 4.95551 33.2375 5.63017 32.9583 6.37462C32.6326 7.25865 32.0045 7.60762 31.0972 7.67741C30.3295 7.72394 29.585 7.88679 28.701 8.00311C29.4687 8.74756 30.1201 9.37569 30.7948 10.0038C31.2601 10.4226 31.3764 10.9111 31.2368 11.4927C31.0739 12.3768 30.9344 13.2375 30.7482 14.3077Z" fill="#00F0FF"/>
<path d="M63.2697 28.0334C63.1534 27.9869 62.8975 27.9171 62.6648 27.8008C61.5016 27.1727 60.3384 26.5678 59.1985 25.9164C58.7564 25.6605 58.4075 25.6372 57.9655 25.8931C56.8488 26.5445 55.6856 27.1261 54.5689 27.7543C54.0571 28.0334 53.5453 28.1963 53.0335 27.8241C52.5217 27.4518 52.4984 26.94 52.6147 26.3352C52.8939 25.0324 53.1265 23.7063 53.3126 22.3803C53.3592 22.0778 53.2196 21.6823 53.0102 21.4497C52.0796 20.4959 51.0793 19.5653 50.1255 18.6347C49.73 18.2625 49.381 17.867 49.5671 17.2621C49.7765 16.5875 50.2883 16.4246 50.8932 16.3548C52.1029 16.192 53.3126 16.0291 54.5224 15.8896C55.1505 15.8198 55.5227 15.5639 55.8019 14.959C56.2904 13.7958 56.8953 12.6558 57.4304 11.5159C57.663 11.0274 57.9887 10.7017 58.5703 10.7017C59.1519 10.7017 59.4776 11.0506 59.7103 11.5392C60.2686 12.7024 60.8967 13.8423 61.3853 15.0288C61.6645 15.6802 62.0832 15.843 62.6881 15.8896C63.8978 16.0059 65.1076 16.2153 66.3173 16.3781C66.8989 16.4479 67.3874 16.634 67.5736 17.2621C67.7597 17.8903 67.3874 18.309 66.9687 18.7045C65.9916 19.6351 65.0145 20.5424 64.0607 21.4962C63.8978 21.7289 63.7815 22.1011 63.828 22.3337C64.0374 23.7063 64.3166 25.0556 64.5492 26.4282C64.7353 27.4053 64.27 28.0567 63.2697 28.0334ZM55.2668 24.7299C56.1509 24.2647 56.9651 23.8692 57.7561 23.4039C58.3144 23.0782 58.8262 23.0782 59.3846 23.4039C60.1756 23.8692 60.9898 24.2647 61.8971 24.7299C61.7343 23.8226 61.6412 23.0317 61.4318 22.2872C61.1759 21.3799 61.4783 20.7285 62.153 20.1469C62.7346 19.6351 63.2232 19.0302 63.7582 18.4486C62.8742 18.3323 62.06 18.1694 61.2224 18.0997C60.478 18.0531 60.036 17.7042 59.7568 17.0295C59.4078 16.2385 59.0123 15.4708 58.5703 14.5635C58.105 15.5173 57.6863 16.3083 57.3141 17.1458C57.0582 17.7274 56.6394 18.0299 55.988 18.0764C55.1272 18.1694 54.2432 18.309 53.429 18.4254C54.0106 19.0535 54.5224 19.7049 55.1272 20.2865C55.6856 20.8216 55.895 21.3799 55.7088 22.1476C55.5227 22.9619 55.4297 23.7761 55.2668 24.7299Z" fill="#00F0FF"/>
<path d="M3.52836 26.754C3.78427 25.3349 4.01691 23.8693 4.31934 22.4269C4.4124 21.9849 4.29608 21.729 3.99364 21.4265C3.01655 20.5425 2.08598 19.6119 1.13215 18.7046C0.7134 18.2859 0.364438 17.8904 0.573815 17.2622C0.783193 16.6109 1.34153 16.4713 1.92314 16.3782C3.22593 16.2154 4.55198 16.0525 5.83151 15.8431C6.11068 15.7966 6.45964 15.5407 6.59923 15.2615C7.25062 14.0518 7.83223 12.8188 8.41383 11.5858C8.64647 11.0973 8.9489 10.7483 9.55377 10.7483C10.1586 10.7483 10.4611 11.0973 10.6937 11.5625C11.2521 12.749 11.8802 13.9122 12.392 15.1219C12.6479 15.7036 13.0201 15.8664 13.6017 15.9362C14.9045 16.0758 16.2073 16.2852 17.5101 16.4713C18.0452 16.5411 18.4872 16.797 18.5105 17.332C18.5337 17.7275 18.3941 18.2626 18.1382 18.5418C17.1844 19.5421 16.1608 20.496 15.1372 21.4265C14.7882 21.7522 14.7184 22.0547 14.8115 22.5199C15.0906 23.8693 15.3698 25.2418 15.5559 26.6144C15.6024 26.9867 15.4163 27.5683 15.1139 27.7776C14.8347 27.987 14.2066 28.0335 13.8576 27.8707C12.5781 27.2658 11.3451 26.5679 10.1121 25.87C9.71662 25.6373 9.39092 25.6606 8.99543 25.87C7.7857 26.5446 6.5527 27.2193 5.3197 27.8474C4.38913 28.336 3.5051 27.8009 3.52836 26.754ZM4.43566 18.4255C5.06379 19.1234 5.66866 19.798 6.29679 20.4494C6.71555 20.8915 6.8784 21.3335 6.76208 21.9383C6.57596 22.8224 6.43638 23.7297 6.25026 24.73C7.1343 24.2415 7.94855 23.846 8.693 23.404C9.2746 23.055 9.80968 23.0783 10.368 23.404C11.1357 23.846 11.9035 24.2415 12.8108 24.73C12.6479 23.7762 12.5316 22.9387 12.3455 22.1245C12.1826 21.38 12.3455 20.7751 12.9503 20.2633C13.5785 19.7282 14.1601 19.1234 14.8813 18.4487C13.9274 18.3324 13.1364 18.1463 12.3455 18.123C11.4847 18.0765 10.9961 17.681 10.6705 16.89C10.368 16.1456 9.97253 15.4244 9.55377 14.5869C9.08849 15.5174 8.693 16.3084 8.32077 17.1227C8.0416 17.7275 7.62285 18.03 6.94819 18.0998C6.08742 18.1696 5.24991 18.3091 4.43566 18.4255Z" fill="#00F0FF"/>
<path d="M34.0973 28.6151C40.3321 28.6383 45.4269 33.7564 45.4269 40.0145C45.4269 46.2958 40.2855 51.3907 33.9809 51.3674C27.7462 51.3441 22.6746 46.2028 22.6978 39.9214C22.6978 33.6867 27.8392 28.5918 34.0973 28.6151ZM33.6785 30.9647C28.6535 31.1509 24.8381 35.3849 25.0475 40.3169C25.2336 45.342 29.4444 49.1806 34.3997 48.9712C39.6109 48.7618 43.2866 44.4114 43.0772 39.5725C42.8678 34.594 38.657 30.7554 33.6785 30.9647Z" fill="#00F0FF"/>
<path d="M32.2357 42.2712C33.9572 40.5496 35.5625 38.9211 37.1677 37.3159C37.3305 37.1531 37.4701 37.0135 37.633 36.8739C38.1913 36.4319 38.7962 36.4551 39.2382 36.9437C39.6337 37.3624 39.657 38.0371 39.2382 38.5024C38.866 38.9211 38.4705 39.2934 38.075 39.6889C36.3767 41.3871 34.6784 43.0854 32.9802 44.7837C32.1194 45.6212 31.3982 45.5282 30.7933 44.4813C30.1419 43.3413 29.4673 42.2014 28.8391 41.0614C28.3971 40.2705 28.5134 39.5958 29.1416 39.2468C29.7697 38.8979 30.3978 39.1538 30.8631 39.9215C31.3051 40.666 31.7472 41.4337 32.2357 42.2712Z" fill="#00F0FF"/>
</g>
<defs>
<clipPath id="clip0_284_545">
<rect width="67.117" height="65" fill="white" transform="translate(0.5)"/>
</clipPath>
</defs>
</svg>
