<svg width="51" height="50" viewBox="0 0 51 50" fill="none" xmlns="http://www.w3.org/2000/svg">
<g clip-path="url(#clip0_284_285)">
<path d="M50.5 13V7C50.5 6.7 50.37 6.42 50.14 6.23C49.91 6.04 49.61 5.96 49.32 6.02C42.47 7.26 35.43 5.94 29.5 2.29L26.02 0.15C25.7 -0.05 25.3 -0.05 24.98 0.15L21.5 2.29C15.57 5.94 8.53 7.26 1.68 6.02C1.39 5.96 1.09 6.04 0.86 6.23C0.63 6.42 0.5 6.7 0.5 7V21.81C0.5 36.11 11.19 48.22 25.38 49.99C25.42 50 25.46 50 25.5 50C25.54 50 25.58 50 25.62 49.99C39.81 48.22 50.5 36.11 50.5 21.81V15H48.5V21.81C48.5 35.06 38.62 46.29 25.5 47.99C12.38 46.29 2.5 35.06 2.5 21.81V8.17C9.46 9.16 16.54 7.69 22.55 3.99L25.5 2.17L28.45 3.99C34.47 7.69 41.54 9.16 48.5 8.17V13H50.5Z" fill="#01EAF9"/>
<path d="M27.4 5.69L26.02 4.84C25.7 4.64 25.29 4.64 24.97 4.84L23.59 5.69C18.18 9.02 11.9 10.68 5.53 10.44C5.26 10.42 4.99 10.53 4.8 10.72C4.61 10.92 4.5 11.18 4.5 11.45V21.81C4.5 33.83 13.47 44.21 25.35 45.95C25.4 45.96 25.45 45.96 25.5 45.96C25.55 45.96 25.6 45.96 25.65 45.95C37.53 44.21 46.5 33.83 46.5 21.81V11.45C46.5 11.18 46.39 10.92 46.19 10.73C46 10.54 45.73 10.43 45.46 10.45C39.11 10.68 32.82 9.03 27.4 5.69ZM44.5 21.81C44.5 22.55 44.46 23.28 44.38 24H36.5V23C36.5 22.45 36.05 22 35.5 22H33.98C33.87 21.7 33.75 21.41 33.62 21.13L34.7 20.05C35.09 19.66 35.09 19.03 34.7 18.64L33.99 17.93L36.21 15.71C36.39 15.52 36.5 15.27 36.5 15V11.57C39.11 12.18 41.79 12.5 44.5 12.47V21.81ZM34.5 40.42C32.12 42.02 29.42 43.16 26.5 43.75V36H27.5C28.05 36 28.5 35.55 28.5 35V33.48C28.8 33.37 29.09 33.25 29.37 33.12L30.45 34.2C30.84 34.59 31.47 34.59 31.86 34.2L32.56 33.5L34.5 35.42V40.42ZM19.14 34.19C19.52 34.57 20.18 34.57 20.55 34.19L21.63 33.11C21.91 33.25 22.21 33.37 22.5 33.47V35C22.5 35.55 22.95 36 23.5 36H24.5V43.75C21.58 43.16 18.88 42.02 16.5 40.42V35.41L18.43 33.48L19.14 34.19ZM33.24 26C32.78 26 32.39 26.31 32.27 26.75C32.1 27.38 31.85 27.99 31.52 28.55C31.29 28.94 31.35 29.44 31.67 29.77L32.56 30.66L31.15 32.07L30.26 31.18C29.94 30.86 29.44 30.8 29.04 31.02C28.48 31.35 27.87 31.6 27.24 31.77C26.81 31.88 26.5 32.28 26.5 32.74V34H24.5V32.74C24.5 32.28 24.19 31.89 23.75 31.77C23.12 31.61 22.51 31.35 21.95 31.02C21.56 30.79 21.06 30.85 20.73 31.18L19.84 32.07L18.43 30.66L19.32 29.77C19.64 29.45 19.71 28.95 19.47 28.55C19.14 27.99 18.89 27.39 18.72 26.75C18.62 26.31 18.22 26 17.76 26H16.5V24H17.76C18.22 24 18.62 23.69 18.73 23.25C18.9 22.62 19.15 22.01 19.48 21.45C19.71 21.06 19.65 20.56 19.33 20.23L18.44 19.34L19.85 17.93L20.74 18.82C21.06 19.14 21.56 19.21 21.96 18.98C22.52 18.65 23.12 18.4 23.76 18.23C24.2 18.12 24.51 17.72 24.51 17.26V16H26.51V17.26C26.51 17.72 26.82 18.11 27.26 18.23C27.89 18.4 28.5 18.65 29.06 18.98C29.45 19.21 29.95 19.15 30.28 18.82L31.17 17.93L32.58 19.34L31.69 20.23C31.37 20.55 31.3 21.05 31.54 21.45C31.87 22.01 32.12 22.62 32.29 23.25C32.4 23.69 32.8 24 33.26 24H34.5V26H33.24ZM34.5 11.04V14.58L32.57 16.51L31.87 15.81C31.48 15.42 30.85 15.42 30.46 15.81L29.38 16.89C29.1 16.75 28.8 16.63 28.51 16.53V15C28.51 14.45 28.06 14 27.51 14H26.51V7.48C29.01 9.01 31.71 10.2 34.5 11.04ZM24.5 7.48V14H23.5C22.95 14 22.5 14.45 22.5 15V16.52C22.2 16.63 21.91 16.75 21.63 16.88L20.55 15.8C20.36 15.61 20.11 15.51 19.84 15.51C19.57 15.51 19.32 15.61 19.13 15.8L18.43 16.5L16.5 14.58V11.03C19.29 10.2 21.99 9.01 24.5 7.48ZM6.5 12.47C9.2 12.5 11.89 12.18 14.5 11.57V15C14.5 15.27 14.61 15.52 14.79 15.71L17.01 17.93L16.3 18.64C15.91 19.03 15.91 19.66 16.3 20.05L17.38 21.13C17.24 21.41 17.12 21.71 17.02 22H15.5C14.95 22 14.5 22.45 14.5 23V24H6.61C6.54 23.28 6.5 22.55 6.5 21.81V12.47ZM6.91 26H14.5V27C14.5 27.55 14.95 28 15.5 28H17.02C17.13 28.3 17.25 28.59 17.38 28.87L16.3 29.95C15.91 30.34 15.91 30.97 16.3 31.36L17.01 32.07L14.79 34.29C14.61 34.48 14.5 34.73 14.5 35V38.91C10.63 35.63 7.89 31.09 6.91 26ZM36.5 38.91V35C36.5 34.73 36.39 34.48 36.21 34.29L33.99 32.07L34.7 31.36C35.09 30.97 35.09 30.34 34.7 29.95L33.62 28.87C33.76 28.59 33.88 28.3 33.98 28H35.5C36.05 28 36.5 27.55 36.5 27V26H44.09C43.11 31.09 40.37 35.63 36.5 38.91Z" fill="#01EAF9"/>
<path d="M23 20.5C21.35 20.5 20 21.85 20 23.5V28.5C20 29.05 20.45 29.5 21 29.5C21.55 29.5 22 29.05 22 28.5V27.5H24V28.5C24 29.05 24.45 29.5 25 29.5C25.55 29.5 26 29.05 26 28.5V23.5C26 21.85 24.65 20.5 23 20.5ZM22 25.5V23.5C22 22.95 22.45 22.5 23 22.5C23.55 22.5 24 22.95 24 23.5V25.5H22Z" fill="#01EAF9"/>
<path d="M31 21.5C31 20.95 30.55 20.5 30 20.5H28C27.45 20.5 27 20.95 27 21.5C27 22.05 27.45 22.5 28 22.5V27.5C27.45 27.5 27 27.95 27 28.5C27 29.05 27.45 29.5 28 29.5H30C30.55 29.5 31 29.05 31 28.5C31 27.95 30.55 27.5 30 27.5V22.5C30.55 22.5 31 22.05 31 21.5Z" fill="#01EAF9"/>
</g>
<defs>
<clipPath id="clip0_284_285">
<rect width="50" height="50" fill="white" transform="translate(0.5)"/>
</clipPath>
</defs>
</svg>
