<svg width="41" height="50" viewBox="0 0 41 50" fill="none" xmlns="http://www.w3.org/2000/svg">
<g clip-path="url(#clip0_284_290)">
<path d="M34.56 34.2C38.39 30.42 40.5 25.37 40.5 20C40.5 8.98 31.53 0.01 20.5 0C14.98 0 9.98 2.25 6.36 5.87C2.74 9.49 0.5 14.49 0.5 20C0.5 25.37 2.61 30.42 6.44 34.2C7.09 34.84 7.6 35.59 7.96 36.4C8.21 36.99 8.37 37.59 8.44 38.2C7.31 38.63 6.5 39.72 6.5 41C6.5 42.65 7.85 44 9.5 44H9.78L11.55 49.32C11.69 49.72 12.07 50 12.5 50H15.5C16.05 50 16.5 49.55 16.5 49C16.5 48.45 16.05 48 15.5 48H13.22L11.89 44H29.11L27.78 48H20.5C19.95 48 19.5 48.45 19.5 49C19.5 49.55 19.95 50 20.5 50H28.5C28.93 50 29.31 49.72 29.45 49.32L31.22 44H31.5C33.15 44 34.5 42.65 34.5 41C34.5 39.72 33.69 38.63 32.56 38.2C32.63 37.59 32.79 36.99 33.04 36.41C33.4 35.59 33.91 34.84 34.56 34.2ZM21.5 2.05C22.52 2.11 23.53 2.24 24.5 2.47V5C24.5 5.27 24.61 5.52 24.79 5.71L26.5 7.41V9.76L25.86 10.4C25.11 9.98 24.32 9.65 23.5 9.42V8C23.5 7.45 23.05 7 22.5 7H21.5V2.05ZM21.5 9V10.2C21.5 10.68 21.83 11.09 22.3 11.18C23.43 11.41 24.49 11.85 25.46 12.49C25.86 12.76 26.38 12.7 26.72 12.37L27.57 11.51L28.99 12.93L28.13 13.78C27.8 14.12 27.74 14.64 28.01 15.04C28.65 16.01 29.09 17.07 29.32 18.2C29.41 18.67 29.82 19 30.3 19H31.5V21H30.3C29.82 21 29.41 21.33 29.32 21.8C29.09 22.93 28.65 23.99 28.01 24.96C27.74 25.36 27.8 25.88 28.13 26.22L28.99 27.07L27.57 28.49L26.72 27.63C26.38 27.3 25.86 27.24 25.46 27.51C24.49 28.15 23.43 28.59 22.3 28.82C21.83 28.91 21.5 29.32 21.5 29.8V31H19.5V29.8C19.5 29.32 19.17 28.91 18.7 28.82C17.57 28.59 16.51 28.15 15.54 27.51C15.14 27.24 14.62 27.3 14.28 27.63L13.43 28.49L12.01 27.07L12.87 26.22C13.2 25.88 13.26 25.36 12.99 24.96C12.35 23.99 11.91 22.93 11.68 21.8C11.59 21.33 11.18 21 10.7 21H9.5V19H10.7C11.18 19 11.59 18.67 11.68 18.2C11.91 17.07 12.35 16.01 12.99 15.04C13.26 14.64 13.2 14.12 12.87 13.78L12.01 12.93L13.43 11.51L14.28 12.37C14.62 12.7 15.14 12.76 15.54 12.49C16.51 11.85 17.57 11.41 18.7 11.18C19.17 11.09 19.5 10.68 19.5 10.2V9H21.5ZM26.5 30.24V32.59L24.79 34.29C24.61 34.48 24.5 34.73 24.5 35V38H21.5V33H22.5C23.05 33 23.5 32.55 23.5 32V30.58C24.32 30.35 25.11 30.02 25.86 29.6L26.5 30.24ZM16.21 34.29L14.5 32.59V30.24L15.14 29.6C15.89 30.02 16.68 30.35 17.5 30.58V32C17.5 32.55 17.95 33 18.5 33H19.5V38H16.5V35C16.5 34.73 16.39 34.48 16.21 34.29ZM16.5 5V2.47C17.47 2.24 18.48 2.11 19.5 2.05V7H18.5C17.95 7 17.5 7.45 17.5 8V9.42C16.68 9.65 15.89 9.98 15.14 10.4L14.5 9.76V7.41L16.21 5.71C16.39 5.52 16.5 5.27 16.5 5ZM7.84 32.78C4.4 29.37 2.5 24.83 2.5 20C2.5 12.19 7.52 5.54 14.5 3.05V4.59L12.79 6.29C12.61 6.48 12.5 6.73 12.5 7V9.62L9.89 12.22C9.5 12.61 9.5 13.25 9.89 13.64L10.9 14.64C10.48 15.39 10.15 16.18 9.92 17H8.5C7.95 17 7.5 17.45 7.5 18V22C7.5 22.55 7.95 23 8.5 23H9.92C10.15 23.82 10.48 24.61 10.9 25.36L9.89 26.36C9.5 26.75 9.5 27.39 9.89 27.78L12.5 30.38V33C12.5 33.27 12.61 33.52 12.79 33.71L14.5 35.41V38H10.44C10.34 37.19 10.13 36.39 9.79 35.61C9.33 34.55 8.67 33.6 7.84 32.78ZM31.5 42H9.5C8.95 42 8.5 41.55 8.5 41C8.5 40.45 8.95 40 9.5 40H31.5C32.05 40 32.5 40.45 32.5 41C32.5 41.55 32.05 42 31.5 42ZM31.2 35.62C30.87 36.39 30.66 37.19 30.56 38H26.5V35.41L28.21 33.71C28.39 33.52 28.5 33.27 28.5 33V30.38L31.11 27.78C31.5 27.39 31.5 26.75 31.11 26.36L30.1 25.36C30.52 24.61 30.85 23.82 31.08 23H32.5C33.05 23 33.5 22.55 33.5 22V18C33.5 17.45 33.05 17 32.5 17H31.08C30.85 16.18 30.52 15.39 30.1 14.64L31.11 13.64C31.5 13.25 31.5 12.61 31.11 12.22L28.5 9.62V7C28.5 6.73 28.39 6.48 28.21 6.29L26.5 4.59V3.05C33.48 5.54 38.5 12.19 38.5 20C38.5 24.83 36.6 29.37 33.16 32.78C32.33 33.6 31.67 34.55 31.2 35.62Z" fill="#01EAF9"/>
<path d="M14.5 25C15.05 25 15.5 24.55 15.5 24V22H18.5V24C18.5 24.55 18.95 25 19.5 25C20.05 25 20.5 24.55 20.5 24V18.5C20.5 16.57 18.93 15 17 15C15.07 15 13.5 16.57 13.5 18.5V24C13.5 24.55 13.95 25 14.5 25ZM17 17C17.83 17 18.5 17.67 18.5 18.5V20H15.5V18.5C15.5 17.67 16.17 17 17 17Z" fill="#01EAF9"/>
<path d="M22.5 23C21.95 23 21.5 23.45 21.5 24C21.5 24.55 21.95 25 22.5 25H26.5C27.05 25 27.5 24.55 27.5 24C27.5 23.45 27.05 23 26.5 23H25.5V17H26.5C27.05 17 27.5 16.55 27.5 16C27.5 15.45 27.05 15 26.5 15H22.5C21.95 15 21.5 15.45 21.5 16C21.5 16.55 21.95 17 22.5 17H23.5V23H22.5Z" fill="#01EAF9"/>
</g>
<defs>
<clipPath id="clip0_284_290">
<rect width="40" height="50" fill="white" transform="translate(0.5)"/>
</clipPath>
</defs>
</svg>
