<svg width="67" height="65" viewBox="0 0 67 65" fill="none" xmlns="http://www.w3.org/2000/svg">
<g clip-path="url(#clip0_171_758)">
<path d="M-0.00129331 33.5394C0.345227 33.1017 0.655272 32.6275 1.05651 32.2263C5.1418 28.1227 9.2271 24.0374 13.3306 19.9521C14.5343 18.7484 15.4098 18.7484 16.6135 19.9521C18.7655 22.1042 20.9176 24.2563 23.0697 26.4083C24.3281 27.6668 24.3281 28.5057 23.0697 29.7824C22.942 29.91 22.8326 30.0377 22.6137 30.2566C23.3615 30.8584 24.0363 31.4785 24.7841 32.0256C25.0394 32.208 25.4406 32.281 25.7689 32.2627C28.2128 32.0986 30.5108 32.6275 32.7176 33.667C33.2282 33.9041 33.6659 33.8677 34.1948 33.667C35.7086 33.0652 37.1859 32.3904 38.8455 32.2992C39.2832 32.281 39.7209 32.2263 40.1404 32.281C41.4718 32.4633 42.5113 31.9344 43.3868 31.0043C43.6239 30.749 43.8974 30.5301 44.2075 30.2383C43.8974 29.9283 43.6421 29.6729 43.405 29.3994C42.6208 28.5604 42.5843 27.5756 43.3685 26.7731C45.7577 24.3475 48.1469 21.9583 50.5725 19.5691C51.3567 18.8031 52.3416 18.8031 53.1441 19.5691C54.749 21.1376 59.8359 26.2368 61.4043 27.8235C61.915 28.3524 61.9332 28.8996 61.4955 29.319C61.0943 29.7203 60.4924 29.6838 60 29.1914C58.468 27.6776 53.4541 22.6331 51.9951 21.1558C49.6606 23.4903 47.3444 25.8065 45.0464 28.0862C49.2411 32.281 53.5271 36.5669 57.7218 40.7616C59.9833 38.5001 62.2995 36.1839 64.6522 33.8494C63.2479 32.4451 61.7341 30.9314 60.2386 29.4358C60.0745 29.2717 59.8921 29.0893 59.7644 28.9069C59.4544 28.4692 59.5091 28.0315 59.8739 27.6668C60.2386 27.302 60.6763 27.2473 61.114 27.5756C61.3146 27.7397 61.5153 27.9221 61.6976 28.1045C63.1384 29.5453 64.5975 30.9861 66.0383 32.4451C67.1325 33.5576 67.1325 34.4513 66.0018 35.582C63.795 37.7888 61.6065 39.9774 59.3997 42.1842C58.2507 43.3332 57.3935 43.3332 56.208 42.2024C56.0621 42.0747 55.9345 41.9471 55.7156 41.7647C55.132 42.4213 54.4389 42.9684 54.0195 43.6797C53.6912 44.2451 53.6365 44.9928 53.6182 45.6858C53.5635 47.5644 52.9434 49.1693 51.5391 50.4277C51.302 50.6466 51.0832 50.8837 50.8461 51.1208C49.5147 52.4521 48.1651 53.7835 46.8337 55.1331C46.6331 55.3337 46.5054 55.6255 46.4325 55.8991C46.2136 56.9387 45.7395 57.5223 44.3898 58.343C44.8458 61.6076 43.3685 63.0848 40.1586 62.5924C38.2619 65.2734 36.8758 65.4011 34.1219 63.1031C33.8848 63.3949 33.6842 63.7232 33.4106 63.9967C32.2799 65.164 30.5472 65.2916 29.2706 64.3068C28.997 64.1062 28.7417 63.8691 28.4864 63.6137C24.2734 59.4008 20.0969 55.1513 15.8292 50.9931C14.1513 49.3699 13.0935 47.5826 13.203 45.2299C13.2577 44.1903 12.7835 43.4608 12.0905 42.7678C11.7622 42.4395 11.4704 42.0383 11.1421 41.6553C10.7409 42.0383 10.4855 42.3118 10.212 42.5489C9.4642 43.2055 8.49759 43.242 7.78631 42.5489C5.32418 40.1233 2.8803 37.6612 0.454655 35.2173C0.272276 35.0167 0.126372 34.7796 -0.0195312 34.5425C-0.00129331 34.2324 -0.00129331 33.8859 -0.00129331 33.5394ZM12.4917 40.488C12.7653 40.7251 13.0753 40.9987 13.3854 41.254C14.6985 42.3665 15.3003 43.8256 15.2456 45.5217C15.1909 47.0172 15.811 48.1297 16.8323 49.1511C21.2094 53.4917 25.5683 57.8688 29.9454 62.2459C30.1278 62.4283 30.3102 62.6289 30.529 62.7748C31.0214 63.1213 31.605 63.0666 32.0245 62.6654C32.4258 62.2824 32.5169 61.6623 32.2069 61.1699C32.0428 60.9145 31.8421 60.6957 31.6233 60.4768C29.5442 58.3247 27.4468 56.1727 25.3494 54.0206C25.2035 53.8564 25.0394 53.7105 24.93 53.5282C24.6199 53.0905 24.6746 52.6527 25.0394 52.288C25.4406 51.905 25.8966 51.905 26.3343 52.2333C26.4984 52.3427 26.6261 52.4886 26.7538 52.6345C27.7386 53.6376 28.7235 54.6589 29.7083 55.662C31.7874 57.7958 33.8483 59.9479 35.9639 62.0453C36.2922 62.3736 36.8029 62.6471 37.2406 62.6654C37.5689 62.6654 38.0248 62.2824 38.2072 61.9541C38.4625 61.4617 38.2437 60.951 37.8424 60.5498C36.0004 58.6895 34.1766 56.8292 32.3528 54.969C30.9485 53.5464 29.5442 52.1238 28.1581 50.683C27.6657 50.1906 27.6657 49.5888 28.1034 49.1875C28.5228 48.8045 29.0517 48.841 29.5624 49.297C29.6901 49.4064 29.8177 49.5341 29.9272 49.6617C33.3559 53.1452 36.7846 56.6286 40.2316 60.1121C40.4505 60.3309 40.724 60.5498 40.9976 60.6957C41.49 60.951 41.9277 60.7686 42.2925 60.3856C42.6572 60.0026 42.712 59.5284 42.4566 59.0543C42.329 58.8172 42.1283 58.5983 41.9277 58.3977C38.5172 54.9325 35.0885 51.4673 31.6598 48.0021C31.5139 47.8562 31.368 47.7285 31.2585 47.5644C30.9667 47.1266 30.9302 46.6525 31.3315 46.2512C31.7145 45.8682 32.1887 45.85 32.6264 46.1965C32.8088 46.3424 32.9729 46.5248 33.1553 46.6889C36.1463 49.7164 39.1373 52.7622 42.1466 55.7897C42.329 55.972 42.5113 56.1727 42.7302 56.3003C43.2409 56.6286 43.7333 56.5557 44.171 56.1544C44.5905 55.7532 44.6817 55.2425 44.3716 54.7319C44.2439 54.5312 44.0798 54.3489 43.9157 54.1847C40.1222 50.3912 36.3104 46.5977 32.5352 42.786C32.1887 42.4395 31.8604 42.3665 31.3862 42.4395C29.9819 42.6401 28.5958 42.859 27.1915 42.8772C25.2947 42.8954 23.8904 41.0169 24.2552 39.1384C24.5105 37.8618 25.313 37.0958 26.4802 36.6398C27.8663 36.1109 29.2341 35.5638 30.7479 34.9802C30.3649 34.8343 30.1278 34.7431 29.8907 34.6519C28.6505 34.1777 27.3738 34.2324 26.0972 34.2689C24.8935 34.2871 23.8357 33.9041 22.942 33.1017C22.3949 32.6092 21.8478 32.1168 21.3553 31.6609C18.3825 34.6154 15.4827 37.5153 12.4917 40.488ZM45.4112 31.5514C45.247 31.7885 45.1011 32.0803 44.8823 32.3174C43.5874 33.7218 42.0554 34.506 40.0857 34.3054C38.7908 34.1777 37.5506 34.4878 36.3287 34.9619C35.1797 35.4179 34.0125 35.8191 32.8635 36.2751C30.9302 37.0411 28.997 37.8071 27.0638 38.5731C26.2978 38.8831 26.0242 39.3755 26.1884 40.0321C26.3525 40.6704 26.8449 40.9987 27.6292 40.9622C27.7204 40.9622 27.8116 40.9622 27.8845 40.944C29.1612 40.7798 30.4378 40.6522 31.678 40.4151C32.4622 40.2692 32.9911 40.5063 33.52 41.0534C37.423 44.9928 41.3441 48.8957 45.2653 52.8169C45.4476 52.9993 45.63 53.1634 45.8124 53.3458C47.3626 51.7956 48.8581 50.3183 50.3354 48.8228C50.9555 48.2027 51.4479 47.4732 51.5209 46.5613C51.5574 46.0688 51.6121 45.5582 51.6121 45.0658C51.6303 43.6614 52.1592 42.4942 53.1805 41.5458C53.5818 41.1811 53.983 40.8528 54.3478 40.5245C51.3567 37.497 48.4751 34.5972 45.4112 31.5514ZM21.793 28.1592C19.4951 25.8612 17.1788 23.545 14.9721 21.3382C10.7409 25.5694 6.45494 29.8371 2.26021 34.05C4.50348 36.2933 6.80146 38.5913 9.0812 40.871C13.2942 36.6398 17.5618 32.3722 21.793 28.1592Z" fill="#00F0FF"/>
<path d="M23.253 9.50172C24.2379 10.5595 25.2045 11.6356 26.2258 12.6569C28.2685 14.6631 28.2685 14.6448 27.7213 17.4352C27.466 18.8031 27.2472 20.1709 27.0101 21.5388C27.0101 21.557 27.0283 21.5752 27.0648 21.6664C27.2289 21.5935 27.3931 21.5388 27.5572 21.4476C28.5603 20.9187 29.5451 20.3898 30.5482 19.8791C31.1683 19.5691 31.7337 19.7514 31.989 20.2803C32.2443 20.791 32.062 21.3017 31.4419 21.6299C30.2929 22.25 29.1439 22.8701 27.9767 23.4537C26.3535 24.2562 24.8215 23.2349 25.0404 21.4476C25.2775 19.5508 25.6422 17.6723 25.9705 15.7938C26.0434 15.3926 25.934 15.1555 25.6605 14.9001C24.3291 13.6417 23.0342 12.3651 21.7211 11.0884C21.1192 10.5048 20.8092 9.83 21.0827 8.97282C21.3563 8.11564 21.9764 7.67793 22.8518 7.5685C23.4172 7.49555 23.9643 7.40436 24.5297 7.31317C25.8246 7.13079 27.1195 6.96665 28.3961 6.74779C28.6332 6.71132 28.9433 6.47422 29.0527 6.23713C29.8734 4.65043 30.6576 3.06373 31.4236 1.45879C31.8613 0.601608 32.4267 -0.000244141 33.4298 -0.000244141C34.4147 -0.000244141 34.9618 0.601608 35.3448 1.42231C36.1108 3.00902 36.9133 4.55924 37.661 6.16418C37.8616 6.58365 38.117 6.72955 38.5364 6.78427C40.3238 7.02136 42.0928 7.31317 43.8801 7.55026C44.7556 7.67793 45.3939 8.07916 45.6675 8.93634C45.9593 9.81177 45.6128 10.5048 45.0109 11.1067C43.6978 12.3833 42.4029 13.66 41.0897 14.9366C40.8344 15.1737 40.725 15.3926 40.7979 15.7756C41.1262 17.4717 41.418 19.1861 41.6734 20.9004C41.7463 21.4111 41.801 21.9582 41.6551 22.4324C41.3268 23.5632 40.0319 24.0374 38.883 23.4902C37.6975 22.9066 36.5303 22.2683 35.363 21.6482C34.7247 21.3017 34.5423 20.7728 34.8159 20.2439C35.0895 19.715 35.6366 19.5691 36.2749 19.8973C37.4057 20.481 38.5364 21.0828 39.7949 21.7394C39.6307 20.7363 39.4848 19.8609 39.3389 18.9854C39.1565 17.8912 38.9559 16.8151 38.7735 15.7209C38.6276 14.9001 38.9377 14.2436 39.5213 13.6782C40.7615 12.4927 41.9834 11.289 43.2236 10.0853C43.3695 9.93943 43.5701 9.83 43.7342 9.70234C43.716 9.64762 43.6795 9.57467 43.6613 9.51996C42.4576 9.33758 41.2539 9.1552 40.0319 8.99106C39.3207 8.88163 38.6094 8.79044 37.8981 8.69925C36.968 8.58982 36.3661 8.0974 35.9649 7.24022C35.2354 5.68999 34.4511 4.15801 33.6851 2.62602C33.594 2.46188 33.5028 2.29774 33.3569 2.02417C32.9739 2.79016 32.6456 3.44673 32.3173 4.12153C31.8249 5.12462 31.2777 6.1277 30.8218 7.16726C30.3841 8.18859 29.6181 8.60806 28.542 8.73573C26.773 8.95458 24.9674 9.24639 23.253 9.50172Z" fill="#00F0FF"/>
<path d="M15.9212 17.417C15.5746 17.2893 15.2281 17.1982 14.8998 17.034C13.9879 16.5781 13.076 16.1221 12.2006 15.6115C11.7994 15.3744 11.4711 15.3561 11.0699 15.5932C10.1397 16.1221 9.19136 16.5963 8.24298 17.0887C7.60466 17.417 6.94809 17.49 6.34624 17.034C5.74439 16.5963 5.58025 15.9762 5.72615 15.2467C5.92677 14.1524 6.12738 13.0764 6.25505 11.9821C6.29152 11.7085 6.16386 11.3438 5.98148 11.1432C5.23372 10.3407 4.43126 9.61117 3.64702 8.84517C3.13636 8.35275 2.84455 7.76914 3.08165 7.03962C3.31874 6.29186 3.88412 5.96358 4.63187 5.85415C5.72615 5.70825 6.82042 5.54411 7.9147 5.34349C8.15179 5.28878 8.46184 5.08816 8.57127 4.86931C9.08193 3.92093 9.55611 2.93608 10.0303 1.95124C10.3403 1.27643 10.8145 0.802246 11.5988 0.802246C12.383 0.802246 12.8754 1.25819 13.2037 1.933C13.6779 2.93608 14.1703 3.93917 14.681 4.90578C14.7904 5.1064 15.0822 5.30702 15.3011 5.34349C16.4318 5.54411 17.5808 5.70825 18.7116 5.87239C19.4228 5.98182 19.9335 6.32834 20.1524 7.02138C20.3712 7.67795 20.1706 8.26156 19.6964 8.75399C18.9304 9.4835 18.2009 10.2677 17.3984 10.9608C16.9425 11.3438 16.8878 11.745 16.9972 12.2739C17.1978 13.3135 17.3802 14.3713 17.5443 15.4108C17.7085 16.4504 16.9607 17.3441 15.9212 17.417ZM17.7267 7.73266C16.9972 7.62323 16.2859 7.47733 15.5564 7.44085C14.1521 7.38614 13.1672 6.839 12.693 5.43468C12.5471 4.94226 12.2553 4.48631 12.0182 4.03036C11.9088 3.79327 11.7811 3.55617 11.617 3.20965C11.0881 4.26745 10.6139 5.17935 10.1944 6.09125C9.84792 6.839 9.28255 7.20376 8.48008 7.29495C7.47699 7.42262 6.49214 7.58676 5.54377 7.73266C6.25505 8.49865 6.92985 9.26465 7.65937 9.97593C8.26122 10.5595 8.46184 11.2161 8.27946 12.0368C8.07884 13.0034 7.95118 13.9883 7.7688 15.0825C8.5895 14.6448 9.31902 14.353 9.95735 13.9336C11.0881 13.1858 12.1459 13.1676 13.2767 13.9336C13.915 14.3713 14.6627 14.6631 15.4834 15.0825C15.2828 13.9518 15.1734 12.9852 14.9545 12.0368C14.7722 11.1796 15.0093 10.5231 15.6293 9.93945C16.3406 9.24641 16.9972 8.49865 17.7267 7.73266Z" fill="#00F0FF"/>
<path d="M63.9404 7.56852C63.685 7.98799 63.4662 8.48042 63.1379 8.82694C62.4084 9.62941 61.5694 10.3407 60.8399 11.1249C60.6575 11.3255 60.5299 11.6903 60.5663 11.9639C60.7122 13.0946 60.9311 14.2254 61.1135 15.3744C61.2229 16.0309 61.0405 16.5963 60.5299 16.9975C59.9827 17.4352 59.3626 17.4717 58.7608 17.1617C57.8306 16.7057 56.8823 16.2498 56.0068 15.7026C55.4232 15.3379 54.9673 15.3926 54.4019 15.7209C53.5812 16.2133 52.724 16.6145 51.8668 17.0705C51.2103 17.417 50.5355 17.5082 49.9154 17.0158C49.3318 16.5598 49.1676 15.9397 49.3135 15.2102C49.5141 14.2071 49.66 13.204 49.8424 12.201C49.9336 11.7268 49.8789 11.362 49.4777 10.9973C48.6934 10.3042 47.9822 9.55645 47.2162 8.82694C46.6873 8.31628 46.4319 7.73266 46.669 7.00314C46.9061 6.29186 47.4533 5.94534 48.1828 5.85415C49.2953 5.70825 50.426 5.54411 51.5203 5.34349C51.7392 5.30702 52.0127 5.1064 52.1222 4.90578C52.6146 4.01212 53.0523 3.10023 53.49 2.17009C53.8365 1.42234 54.2925 0.802246 55.2044 0.802246C56.0798 0.802246 56.5357 1.4041 56.8823 2.13362C57.32 3.06375 57.7577 3.97565 58.2501 4.86931C58.3595 5.08816 58.6696 5.30702 58.9067 5.34349C60.0374 5.54411 61.1864 5.69001 62.3172 5.87239C63.2291 6.0183 63.7944 6.65662 63.9404 7.56852ZM59.0526 15.1008C58.8884 14.0612 58.7972 13.1676 58.5784 12.3286C58.2866 11.2161 58.6331 10.4136 59.4721 9.68412C60.1286 9.10051 60.694 8.4257 61.3323 7.7509C60.2928 7.58676 59.3079 7.42262 58.3048 7.29495C57.5206 7.20376 56.9735 6.839 56.6452 6.12772C56.2804 5.32525 55.8609 4.52278 55.4779 3.73855C55.405 3.59265 55.3138 3.48322 55.1861 3.28261C54.6937 4.28569 54.2195 5.17935 53.8001 6.10949C53.4535 6.85724 52.8882 7.20376 52.0857 7.31319C51.0826 7.42262 50.0978 7.605 49.1676 7.73266C49.8607 8.48042 50.5355 9.26465 51.2467 9.97593C51.8486 10.5595 52.0675 11.1979 51.8851 12.0368C51.6845 13.0034 51.5568 13.9883 51.3562 15.1008C52.1404 14.6996 52.8152 14.426 53.4171 14.0065C54.6208 13.1858 55.7515 13.1676 56.9552 13.9883C57.5571 14.3895 58.2501 14.6631 59.0526 15.1008Z" fill="#00F0FF"/>
</g>
<defs>
<clipPath id="clip0_171_758">
<rect width="66.842" height="65" fill="white"/>
</clipPath>
</defs>
</svg>
