<svg width="67" height="65" viewBox="0 0 67 65" fill="none" xmlns="http://www.w3.org/2000/svg">
<path d="M11.8987 17.4273C12.7168 16.039 13.4606 14.7251 14.2291 13.4856C14.3778 13.2377 14.7001 13.0146 14.948 13.0394C16.3611 13.089 17.7742 13.2129 19.1873 13.2873C19.4104 13.2873 19.6583 13.1881 19.8318 13.0642C22.9803 10.8826 26.4262 9.46959 30.2192 8.9242C36.3922 8.05654 42.0693 9.34564 47.1763 12.8907C52.7294 16.7332 56.0762 22.0631 57.2166 28.7317C57.6628 31.3595 57.638 33.9872 57.1918 36.615C57.1174 36.9869 57.167 37.1604 57.5389 37.3587C60.3402 38.747 61.431 41.8458 60.1419 44.6223C58.8776 47.3245 55.7539 48.44 52.903 47.2005C52.779 47.1509 52.6551 47.1013 52.5311 47.0518C51.6882 47.969 50.8701 48.8862 49.9528 49.8779C50.7462 49.8779 51.4155 49.9027 52.1097 49.8779C52.5063 49.8531 52.7294 49.977 52.903 50.3241C53.6219 51.6132 54.3904 52.9023 55.2085 54.2905C55.6052 53.5964 55.977 52.9767 56.3241 52.3817C56.8199 51.5636 57.1422 50.3985 57.8859 50.0018C58.6297 49.5804 59.7701 49.8779 60.7369 49.9026C63.1168 49.9274 65.1993 51.514 65.8438 53.8195C65.9182 54.117 66.0174 54.4393 66.0174 54.7368C66.0174 58.133 66.0174 61.5541 66.0174 65C58.8032 65 51.6138 65 44.4245 65C44.4245 61.2814 44.4245 57.5629 44.4245 53.8443C35.698 57.8108 27.17 57.4389 19.3856 51.638C11.6012 45.8618 8.7255 37.8545 9.98984 28.2111C7.0645 28.2111 4.0648 28.2111 1.0403 28.2111C1.01551 27.9384 0.990723 27.7401 0.990723 27.5418C0.990723 24.5173 0.990723 21.4929 0.990723 18.4685C0.990723 15.3449 3.32107 13.0146 6.41994 13.0146C7.362 13.0146 8.47759 12.7667 9.19653 13.1634C9.89067 13.56 10.1882 14.6508 10.6592 15.4441C11.1054 16.0638 11.4773 16.6836 11.8987 17.4273ZM43.3089 33.6402C36.7641 33.6402 30.3184 33.6402 23.8232 33.6402C23.9719 37.1852 24.2942 40.6311 25.2363 44.1017C30.8142 43.1101 36.3674 43.1349 41.8958 44.1017C42.8378 40.6063 43.1849 37.1604 43.3089 33.6402ZM23.848 31.3843C30.368 31.3843 36.8136 31.3843 43.2841 31.3843C43.408 28.8804 42.5651 22.8564 41.8462 20.9475C36.3178 21.9391 30.7647 21.9143 25.2611 20.9475C24.443 23.724 23.7488 28.93 23.848 31.3843ZM3.22191 25.9552C9.04778 25.9552 14.7745 25.9552 20.5508 25.9552C20.5508 23.3522 20.6004 20.774 20.526 18.1958C20.4764 16.4605 19.1377 15.2457 17.4023 15.1466C17.0305 15.1218 16.6338 15.097 16.2619 15.1466C16.014 15.221 15.7165 15.3697 15.5926 15.568C14.9976 16.4605 14.477 17.3777 13.9068 18.2702C13.2622 19.3361 12.6177 20.4269 11.8987 21.5425C11.7252 21.2946 11.6012 21.1211 11.4773 20.9227C10.56 19.4353 9.5436 17.9727 8.77508 16.4109C8.1801 15.221 7.362 15.0226 6.22161 15.1714C4.56062 15.3697 3.29628 16.5348 3.2467 18.2206C3.17233 20.774 3.22191 23.3522 3.22191 25.9552ZM46.5813 62.8184C52.3824 62.8184 58.1339 62.8184 63.9101 62.8184C63.9101 60.2154 63.9597 57.6372 63.8854 55.059C63.8358 53.3237 62.4971 52.109 60.7617 52.0098C60.3898 51.985 59.9932 51.9602 59.6213 52.0098C59.3734 52.0594 59.0759 52.2082 58.9272 52.4065C58.3818 53.2246 57.8859 54.0922 57.3653 54.9351C56.6712 56.0507 55.977 57.191 55.2581 58.3809C55.0846 58.133 54.9606 57.9595 54.8615 57.7612C53.9442 56.2738 52.9278 54.8111 52.1592 53.2493C51.5643 52.0594 50.7709 51.8611 49.6058 52.0098C47.92 52.2082 46.6556 53.3733 46.6061 55.0343C46.5317 57.6372 46.5813 60.1906 46.5813 62.8184ZM12.0475 33.6402C12.0475 33.7889 12.0227 33.8633 12.0227 33.9625C12.0227 34.0864 12.0227 34.1856 12.0475 34.3095C12.4193 38.4743 13.8076 42.2424 16.2619 45.6139C16.6834 46.2089 17.0305 46.3824 17.7742 46.1097C19.5344 45.49 21.3193 45.019 22.9307 44.5231C22.4845 40.9038 22.0134 37.2844 21.5672 33.6402C18.4931 33.6402 15.2951 33.6402 12.0475 33.6402ZM55.2085 31.4091C54.9854 30.0208 54.8367 28.7069 54.564 27.4178C53.8698 24.3438 52.5311 21.5673 50.5974 19.0882C50.4734 18.9147 50.1512 18.7412 49.9776 18.7908C47.9944 19.3609 46.0359 19.9807 44.0278 20.6005C44.9203 24.1207 45.2921 27.7649 45.4161 31.4338C48.6637 31.4091 51.837 31.4091 55.2085 31.4091ZM25.8313 18.8403C31.0374 19.708 36.0947 19.7328 41.2264 18.8403C40.3092 16.2621 39.2184 13.9071 37.1359 12.1717C35.227 10.5852 32.7727 10.3868 30.7151 11.6511C28.0872 13.2873 26.9221 15.9647 25.8313 18.8403ZM25.9056 46.1841C26.8973 48.8615 27.9881 51.3653 30.3184 53.0758C32.4256 54.6128 34.9791 54.5632 37.0368 52.9519C39.2432 51.2165 40.334 48.8119 41.2264 46.1841C36.0947 45.3164 31.0374 45.3164 25.9056 46.1841ZM44.127 44.4488C46.0111 44.9942 47.8704 45.5396 49.7297 46.0849C50.052 46.1841 50.2751 46.2833 50.5478 45.9362C50.7957 45.6139 50.7709 45.3908 50.5726 45.0437C49.1595 42.5895 49.7297 39.5155 52.0105 37.9289C52.8038 37.3587 53.8202 37.086 54.8862 36.5902C54.9854 35.7722 55.1094 34.731 55.2581 33.6402C51.9857 33.6402 48.7877 33.6402 45.5153 33.6402C45.3665 37.3092 45.0194 40.9285 44.127 44.4488ZM55.2333 45.5148C57.0183 45.5148 58.4561 44.1017 58.5057 42.3168C58.5305 40.5071 57.0926 39.0197 55.2581 39.0197C53.4732 39.0197 52.0353 40.4327 51.9857 42.2176C51.9609 44.0273 53.4236 45.5148 55.2333 45.5148ZM11.9979 31.3843C15.3199 31.3843 18.5427 31.3843 21.7655 31.3843C21.8151 30.2935 21.8647 29.2771 21.9143 28.2111C18.7658 28.2111 15.6422 28.2111 12.4441 28.2111C12.2706 29.2523 12.1219 30.2935 11.9979 31.3843ZM40.2596 53.0758C43.3585 52.109 46.1598 50.4233 48.6389 47.969C46.8292 47.4732 45.1682 47.027 43.6311 46.6055C42.466 48.8862 41.3504 50.9934 40.2596 53.0758ZM48.6637 17.0554C46.1102 14.6012 43.3585 12.8907 40.086 11.9734C41.6727 13.8823 42.6147 16.1134 43.4824 18.4685C45.193 17.9975 46.854 17.5265 48.6637 17.0554ZM18.4931 47.9938C21.0218 50.448 23.7984 52.1586 27.046 53.0758C25.4842 51.167 24.5173 48.9606 23.6744 46.6055C21.9639 47.027 20.3029 47.498 18.4931 47.9938ZM21.5424 14.626C21.9391 15.6176 22.4349 16.4853 22.6084 17.4025C22.7572 18.2206 23.129 18.3693 23.6249 18.3445C24.79 16.1382 25.9056 14.0062 26.9716 11.9486C25.0875 12.5436 23.2034 13.5104 21.5424 14.626Z" fill="#00F0FF"/>
<path d="M66.6404 27.0959C65.3265 29.6988 64.0622 32.2027 62.7235 34.8057C61.1368 32.3514 59.6246 29.9963 58.0628 27.5421C59.1288 27.4677 60.0956 27.3933 61.2112 27.2942C59.575 19.5348 55.658 13.3372 49.0389 9.07328C39.6927 3.04922 29.9746 2.8509 19.9839 7.83376C19.6616 7.26358 19.3145 6.64382 18.8931 5.90011C28.0409 1.21473 37.288 0.718927 46.5598 5.13161C55.8068 9.54429 61.36 17.031 63.5416 27.0711C64.0126 27.0711 64.5084 27.0711 65.0042 27.0711C65.5001 27.0959 65.9959 27.0959 66.6404 27.0959Z" fill="#00F0FF"/>
<path d="M9.10246 37.5078C7.98687 37.5822 7.02002 37.6565 5.92922 37.7557C7.68938 45.9613 12.003 52.3324 19.1428 56.646C26.2578 60.9347 33.8934 61.7776 41.9257 59.4473C42.0496 59.7695 42.1736 60.0918 42.2975 60.4389C42.4215 60.7612 42.5455 61.1082 42.6942 61.5297C33.943 63.8847 25.6628 63.0667 17.928 58.3565C10.2181 53.6463 5.58214 46.7298 3.74761 37.9788C3.17742 37.9788 2.65681 37.954 2.16099 37.9788C1.64038 37.954 1.11977 38.0036 0.5 38.0532C1.81392 35.4502 3.07826 32.9464 4.41697 30.3186C5.9788 32.7233 7.51584 35.0536 9.10246 37.5078Z" fill="#00F0FF"/>
<path d="M6.47461 5.4043C6.4994 2.33029 8.87933 0 11.9534 0C14.9779 0 17.3083 2.37987 17.3083 5.42909C17.3083 8.4783 14.9283 10.8334 11.8295 10.8334C8.82975 10.8334 6.47461 8.42872 6.47461 5.4043ZM15.1514 5.37951C15.1266 3.5946 13.6888 2.15676 11.9038 2.15676C10.0941 2.15676 8.63142 3.61939 8.65621 5.42909C8.65621 7.23878 10.0941 8.67662 11.9038 8.67662C13.7136 8.67662 15.1762 7.1892 15.1514 5.37951Z" fill="#00F0FF"/>
</svg>
