<svg width="84" height="84" viewBox="0 0 84 84" fill="none" xmlns="http://www.w3.org/2000/svg">
<path d="M38.248 5.82091C39.7416 3.23384 43.4758 3.23384 44.9694 5.8209L74.2822 56.5921C75.7758 59.1792 73.9088 62.413 70.9215 62.413H12.2959C9.30862 62.413 7.44156 59.1792 8.93521 56.5921L38.248 5.82091Z" fill="#04070E"/>
<path d="M34.1741 34.0629L25.9753 34.0629L19.7233 27.8108C18.7129 26.8005 17.0749 26.8005 16.0646 27.8108L7.76123 36.1142C6.75092 37.1245 6.75092 38.7625 7.76123 39.7728L16.0646 48.0762C17.0749 49.0865 18.7129 49.0865 19.7233 48.0762L26.4065 41.3929H34.1741L39.2372 46.4561V53.1457L32.3384 60.0445C31.3281 61.0549 31.3281 62.6929 32.3384 63.7032L40.8573 72.2222C41.8676 73.2325 43.5057 73.2325 44.516 72.2222L53.0349 63.7032C54.0453 62.6929 54.0453 61.0549 53.0349 60.0445L46.1361 53.1457V46.4561L52.8194 39.7728C53.8297 38.7625 53.8297 37.1245 52.8194 36.1142L44.3004 27.5952C43.2901 26.5849 41.6521 26.5849 40.6417 27.5952L34.1741 34.0629Z" fill="#00F0FF" stroke="white" stroke-width="2.58707"/>
<rect x="12.4917" y="14.2295" width="9.48592" height="9.48592" rx="1.29353" transform="rotate(45 12.4917 14.2295)" fill="#00F0FF"/>
</svg>
